<?xml version="1.0" encoding="utf-8"?>
<!-- Generator: Adobe Illustrator 18.1.1, SVG Export Plug-In . SVG Version: 6.00 Build 0)  -->
<!DOCTYPE svg PUBLIC "-//W3C//DTD SVG 1.1//EN" "http://www.w3.org/Graphics/SVG/1.1/DTD/svg11.dtd">
<svg version="1.1" class="phone_svg"  id="Layer_1" xmlns="http://www.w3.org/2000/svg" xmlns:xlink="http://www.w3.org/1999/xlink" x="0px" y="0px"
	 width="50px" height="50px" viewBox="0 0 50 50" enable-background="new 0 0 50 50" xml:space="preserve">
<path fill="#16A61E" class="phone_svg" d="M25,0C11.2,0,0,11.2,0,25s11.2,25,25,25c13.8,0,25-11.2,25-25S38.8,0,25,0z M31.6,40.2
	c-2.1-0.2-16-3.5-21.8-20c-1.2-3.5,0.3-9,4.2-10.3c4-1.3,6.1,4.3,6.7,7.9l-3.5,3.5c0,0-0.1,2.2,4.7,7c4.8,4.8,7,4.7,7,4.7l4.1-4.1
	c2.6,0.5,7.7,3.8,7.7,3.8C40,37.5,36.7,40.7,31.6,40.2z"/>
</svg>
