<?xml version="1.0" encoding="utf-8"?>
<!-- Generator: Adobe Illustrator 18.1.1, SVG Export Plug-In . SVG Version: 6.00 Build 0)  -->
<svg version="1.1" id="Layer_1" xmlns="http://www.w3.org/2000/svg" xmlns:xlink="http://www.w3.org/1999/xlink" x="0px" y="0px"
	 viewBox="0 0 545.8 100" enable-background="new 0 0 545.8 100" xml:space="preserve">
<g>
	<path d="M2.2,63.1c-0.6,0-1.4-0.1-2.2-0.3v-3c1,0.1,1.6,0.2,1.7,0.2c2.1,0,3.1-1.2,3.1-3.7V38l-3,0.3v-3c4-0.5,7.5-0.7,10.5-0.7
		c2.6,0,4.7,0.4,6.5,1.2c1.8,0.9,3.1,2.3,3.8,4.2c0.4,1,0.5,2.2,0.5,3.4v19.4h-3.6V43.3c0-3.8-2.6-5.8-7.7-5.8c-0.6,0-1.8,0-3.4,0.1
		v18.2c0,2.3-0.5,4-1.6,5.3C5.8,62.5,4.3,63.1,2.2,63.1z"/>
	<path d="M33.5,62.8h-3.6V35h3.6V62.8z"/>
	<path d="M59.4,35v9c0,1.2-0.1,2.2-0.2,3.1s-0.3,1.8-0.6,2.7c-0.6,1.9-2,3.3-4.1,4.1l5.4,8.9h-4l-6.8-11.6l-3.3-4.9
		c-0.6,0.2-1,0.4-1.3,0.6c-1.4,1.1-2,3-2,5.6v10.3h-3.6v-9c0-3.2,0.5-5.5,1.4-7c0.4-0.6,0.9-1.2,1.6-1.7s1.5-1,2.4-1.3L38.9,35H43
		l6.4,10.8l3.6,5.6c0.7-0.4,1.3-0.9,1.6-1.3c0.4-0.5,0.6-1.1,0.9-1.9s0.4-1.7,0.4-2.8V35H59.4z"/>
	<path d="M67,35h14.6v2.8L77.9,52l-2.2,10.8H72L74.3,52l3.8-14.2H63.4v-8.5H67V35z"/>
	<path d="M100.4,62.1v0.7h-3.6v-0.7c0-1,0.2-2.5,0.7-4.3c0.5-1.8,0.8-3.1,1-3.9c0.4-1.6,0.9-3.5,1.6-5.6l3.1-10.6H86.4V35h20.5v2.8
		l-3.2,11c-0.4,1.3-0.7,2.4-0.9,3.3c-0.2,0.9-0.5,1.7-0.7,2.6s-0.4,1.7-0.6,2.3c-0.2,0.6-0.3,1.3-0.5,2
		C100.6,60.4,100.4,61.4,100.4,62.1z M90,73.4h-3.6V46.2H90V73.4z"/>
	<path d="M111.6,62.8V34.9c3.4-0.2,6.5-0.3,9.5-0.3c2.6,0,4.7,0.4,6.5,1.2c1.8,0.9,3.1,2.3,3.8,4.2c0.4,1,0.5,2.2,0.5,3.4v19.4h-3.6
		V43.3c0-3.8-2.6-5.8-7.7-5.8l-5.5,0.2v25H111.6z"/>
	<path d="M150,53.4V35h3.6v14.8l-2.8,3.7H150z"/>
	<path d="M157.5,34.7c2-0.1,3.8-0.2,5.4-0.2s2.9,0.1,4,0.3c1.1,0.2,2,0.5,3,0.9s1.7,1,2.3,1.7c1.3,1.5,2,3.4,2,6v19.4h-3.6V43.3
		c0-3.8-2.6-5.8-7.7-5.8c-1.6,0-3.4,0.1-5.4,0.2V34.7z"/>
	<path d="M199.6,62.8h-20.5V60H191l4.9,0.2v-0.1l-7.2-9.7L178.9,35h4.1l8.3,13.4l0.7,1c1.1-0.7,1.9-1.8,2.5-3.3
		c0.6-1.6,1-3.6,1.2-6.1l0.5-5h3.6l-0.4,4.5c0,0.1,0,0.5-0.1,1.1c-0.1,0.6-0.1,1-0.1,1.4c0,0.3-0.1,0.8-0.2,1.4
		c-0.1,0.6-0.2,1.2-0.3,1.6c-0.1,0.4-0.3,1-0.5,1.6c-0.2,0.6-0.4,1.1-0.7,1.6c-0.3,0.5-0.6,0.9-0.9,1.4c-0.7,0.9-1.6,1.7-2.8,2.3
		l5.9,8.3V62.8z"/>
	<path d="M208.8,62.8h-3.6V35h3.6V62.8z"/>
	<path d="M227.3,34.5c2.7,0,4.8,0.8,6.1,2.5c1.4,1.6,2,3.9,2,6.8v19h-9.5V60h5.9V43.9c0-4.2-1.9-6.4-5.8-6.4c-0.7,0-1.3,0.1-2,0.4
		c-0.7,0.2-1.2,0.5-1.7,0.9c-0.9,0.7-1.6,1.4-2,1.9l-0.3,0.3l-2,21.8h-3.6l2-21.4c0-0.1,0-0.2,0-0.5s-0.1-0.9-0.3-2
		c-0.2-1.1-0.5-1.9-0.8-2.6l-0.6-1.3h3.6c0.4,0.6,0.7,1.6,1,2.9h0.2c0.7-0.9,1.6-1.6,2.7-2.2c0.5-0.3,1.3-0.6,2.2-0.8
		C225.3,34.7,226.3,34.5,227.3,34.5z"/>
	<path d="M267.7,62.1v0.7h-3.6v-0.7c0-1,0.2-2.5,0.7-4.3c0.5-1.8,0.8-3.1,1-3.9c0.4-1.6,0.9-3.5,1.6-5.6l3.1-10.6h-16.9V35h20.5v2.8
		l-3.2,11c-0.4,1.3-0.7,2.4-0.9,3.3c-0.2,0.9-0.5,1.7-0.7,2.6c-0.2,0.9-0.4,1.7-0.6,2.3s-0.3,1.3-0.5,2
		C267.8,60.4,267.7,61.4,267.7,62.1z M257.2,73.4h-3.6V46.2h3.6V73.4z"/>
	<path d="M282.5,62.8h-3.6V35h3.6V62.8z"/>
	<path d="M293,62.8h-3.6V35h3.6V62.8z"/>
	<path d="M299.6,53.4V35h3.6v14.8l-2.8,3.7H299.6z"/>
	<path d="M320.5,60c2.9,0,5.4-1.1,7.3-3.2c1.9-2.1,3.1-5.4,3.5-9.7l1.1-12.1h3.6L335,47.1c-0.1,1.9-0.4,3.5-0.9,5
		c-0.4,1.4-0.9,2.6-1.4,3.5c-0.5,0.9-1.1,1.8-1.9,2.7c-0.8,0.9-1.7,1.7-2.6,2.3s-2.2,1.1-3.6,1.5c-1.4,0.4-3,0.6-4.7,0.6h-9.2
		L308.4,35h3.6l1.3,15.6l2.9-0.9c2.2-0.7,3.5-2.7,3.8-6l0.8-8.6h3.6l-0.7,7.3c-0.1,1-0.2,1.9-0.4,2.6s-0.4,1.6-0.8,2.4
		c-0.4,0.8-0.8,1.6-1.3,2.2s-1.2,1.2-2,1.7s-1.8,0.9-2.9,1.2l-2.8,0.8l0.6,6.7H320.5z"/>
	<path d="M352.7,60.6c0-1,0.2-1.7,0.7-2.2c0.4-0.5,1.1-0.8,1.9-0.8s1.5,0.3,1.9,0.8c0.5,0.5,0.7,1.2,0.7,2.2c0,0.9-0.2,1.7-0.7,2.2
		c-0.5,0.5-1.1,0.8-1.9,0.8s-1.4-0.2-1.9-0.7C353,62.2,352.7,61.5,352.7,60.6z"/>
	<path d="M376.2,34.5c2.7,0,4.8,0.8,6.1,2.5c1.4,1.6,2,3.9,2,6.8v19h-9.5V60h5.9V43.9c0-4.2-1.9-6.4-5.8-6.4c-0.7,0-1.3,0.1-2,0.4
		c-0.7,0.2-1.2,0.5-1.7,0.9c-0.9,0.7-1.6,1.4-2,1.9l-0.3,0.3l-2,21.8h-3.6l2-21.4c0-0.1,0-0.2,0-0.5s-0.1-0.9-0.3-2
		c-0.2-1.1-0.5-1.9-0.8-2.6l-0.6-1.3h3.6c0.4,0.6,0.7,1.6,1,2.9h0.2c0.7-0.9,1.6-1.6,2.7-2.2c0.5-0.3,1.3-0.6,2.2-0.8
		C374.3,34.7,375.3,34.5,376.2,34.5z"/>
	<path d="M391,60.6c0-1,0.2-1.7,0.7-2.2s1.1-0.8,1.9-0.8s1.5,0.3,1.9,0.8c0.5,0.5,0.7,1.2,0.7,2.2c0,0.9-0.2,1.7-0.7,2.2
		c-0.5,0.5-1.1,0.8-1.9,0.8s-1.4-0.2-1.9-0.7S391,61.5,391,60.6z"/>
	<path d="M420.7,35v2.5c-3,0.8-4.4,2.9-4.4,6.2v19.2h-3.6V43.6c0-0.8,0.1-1.6,0.3-2.3c0.2-0.7,0.4-1.3,0.7-1.7
		c0.6-0.8,1.1-1.4,1.6-1.6l0.3-0.2v-0.1h-15.2V35H420.7z"/>
</g>
<g>
	<circle fill="#174894" cx="495.8" cy="50" r="50"/>
	<g>
		<path fill="#FFFFFF" d="M462.3,60.1c0,0.2,0.1,0.4,0,0.7l-0.9,0.2c0-0.3,0-0.5,0-0.6c-0.1-0.7-0.6-0.9-1.4-0.8l-5.9,1.2l0.3,1
			l-1,0.2c-0.4-1.3-0.7-2.4-0.9-3.3c-0.2-0.8-0.2-1.5,0-2.2c0.2-0.6,0.5-1.1,1.1-1.5c0.3-0.2,0.7-0.3,1.1-0.4l6.2-1.2l0.2,1.2
			l-6.2,1.2c-1.2,0.2-1.7,1.2-1.4,2.8c0,0.2,0.1,0.6,0.3,1.1l5.8-1.2c0.7-0.1,1.3-0.1,1.8,0.2S462.2,59.4,462.3,60.1z"/>
		<path fill="#FFFFFF" d="M460.9,50.4l0,1.2l-9.1,0.2l0-1.2L460.9,50.4z"/>
		<path fill="#FFFFFF" d="M452.6,41.2l2.9,0.4c0.4,0,0.7,0.1,1,0.2c0.3,0.1,0.6,0.2,0.9,0.3c0.6,0.3,1,0.8,1.2,1.5l3.1-1.4l-0.2,1.3
			l-4,1.7l-1.7,0.9c0,0.2,0.1,0.3,0.2,0.4c0.3,0.5,0.9,0.8,1.7,0.9l3.3,0.4l-0.1,1.2l-2.9-0.4c-1-0.1-1.8-0.4-2.2-0.7
			c-0.2-0.1-0.4-0.3-0.5-0.6c-0.1-0.2-0.3-0.5-0.3-0.8l-3.1,1.4l0.2-1.3l3.8-1.6l2-0.9c-0.1-0.3-0.2-0.4-0.4-0.6
			c-0.1-0.1-0.3-0.3-0.6-0.4c-0.2-0.1-0.5-0.2-0.9-0.2l-3.3-0.4L452.6,41.2z"/>
		<path fill="#FFFFFF" d="M453.6,37.4l1.5-4.5l0.9,0.3l4,2.7l3.1,1.8l-0.4,1.1l-3.1-1.8l-4-2.7l-1.5,4.5l-2.6-0.9l0.4-1.1
			L453.6,37.4z"/>
		<path fill="#FFFFFF" d="M466.3,30.8l0.2,0.1l-0.6,1l-0.2-0.1c-0.3-0.2-0.7-0.5-1.1-0.9c-0.4-0.4-0.7-0.7-0.9-0.9
			c-0.4-0.4-0.8-0.8-1.3-1.4L460,26l-2.8,4.8l-0.8-0.5l3.4-5.8l0.8,0.5l2.6,2.7c0.3,0.3,0.6,0.6,0.8,0.8s0.4,0.4,0.6,0.6
			c0.2,0.2,0.4,0.4,0.5,0.6c0.2,0.2,0.3,0.3,0.5,0.5C465.9,30.5,466.1,30.7,466.3,30.8z M467.8,35.6l-0.6,1l-7.7-4.5l0.6-1
			L467.8,35.6z"/>
		<path fill="#FFFFFF" d="M468.3,28.3l-6.6-6.3c0.7-0.8,1.4-1.6,2.1-2.3c0.6-0.6,1.2-1,1.7-1.3c0.6-0.2,1.2-0.2,1.8,0
			c0.3,0.1,0.6,0.4,0.9,0.6l4.6,4.4l-0.8,0.8l-4.6-4.4c-0.9-0.9-1.9-0.7-3.1,0.5l-1.2,1.3l5.9,5.6L468.3,28.3z"/>
		<path fill="#FFFFFF" d="M475.6,17.9l-3.1-5.1l1-0.6l2.5,4.1l-0.2,1.5L475.6,17.9z"/>
		<path fill="#FFFFFF" d="M475.3,10.9c0.6-0.3,1.1-0.5,1.6-0.8c0.5-0.2,0.9-0.4,1.2-0.4c0.3-0.1,0.7-0.1,1-0.1
			c0.3,0,0.6,0.1,0.9,0.2c0.6,0.3,1.1,0.8,1.4,1.5l2.6,5.8l-1.1,0.5l-2.6-5.8c-0.5-1.1-1.5-1.4-3.1-0.7c-0.5,0.2-1,0.5-1.6,0.8
			L475.3,10.9z"/>
		<path fill="#FFFFFF" d="M491.5,15.2l-6.5,1.4l-0.2-0.9l3.8-0.8l1.6-0.3l0,0l-3-2.6L483,7.8l1.3-0.3l3.6,3.7l0.3,0.3
			c0.3-0.3,0.5-0.7,0.6-1.2c0.1-0.5,0.1-1.2,0-2l-0.2-1.6l1.1-0.2l0.2,1.5c0,0,0,0.2,0,0.4c0,0.2,0,0.3,0.1,0.4c0,0.1,0,0.3,0,0.5
			c0,0.2,0,0.4,0,0.5s0,0.3,0,0.5c0,0.2-0.1,0.4-0.1,0.6c-0.1,0.2-0.1,0.3-0.2,0.5c-0.1,0.3-0.4,0.7-0.7,0.9l2.5,2.2L491.5,15.2z"/>
		<path fill="#FFFFFF" d="M494.2,15.1l-1.2,0.1l-0.6-9.1l1.2-0.1L494.2,15.1z"/>
		<path fill="#FFFFFF" d="M500.7,6.1c0.9,0.1,1.5,0.4,1.9,1c0.4,0.6,0.5,1.3,0.4,2.3l-0.6,6.2l-3.1-0.3l0.1-0.9l1.9,0.2l0.5-5.2
			c0.1-1.4-0.4-2.1-1.7-2.3c-0.2,0-0.4,0-0.7,0.1c-0.2,0.1-0.4,0.1-0.6,0.2c-0.3,0.2-0.6,0.4-0.7,0.6L498.2,8l-1.4,7l-1.2-0.1L497,8
			c0,0,0-0.1,0-0.2c0-0.1,0-0.3,0-0.7c0-0.4-0.1-0.6-0.2-0.9l-0.1-0.5l1.2,0.1c0.1,0.2,0.2,0.6,0.2,1l0,0c0.3-0.3,0.6-0.5,0.9-0.6
			c0.2-0.1,0.4-0.1,0.7-0.2S500.4,6.1,500.7,6.1z"/>
		<path fill="#FFFFFF" d="M507.2,20.6l-1.1-0.5l3.7-8.1l1.1,0.5L507.2,20.6z M511.8,18.6l-0.1,0.2l-1.1-0.5l0.1-0.2
			c0.1-0.3,0.4-0.7,0.8-1.2c0.4-0.5,0.7-0.8,0.8-1c0.3-0.4,0.8-0.9,1.2-1.5l2.3-2.7l-5-2.3l0.4-0.8l6.1,2.8l-0.4,0.8l-2.4,2.8
			c-0.3,0.3-0.5,0.6-0.7,0.8c-0.2,0.2-0.4,0.4-0.6,0.7s-0.4,0.4-0.5,0.6c-0.1,0.2-0.3,0.4-0.4,0.5C512.1,18.1,511.9,18.4,511.8,18.6
			z"/>
		<path fill="#FFFFFF" d="M515.5,21.1l-1-0.6l5-7.6l1,0.6L515.5,21.1z"/>
		<path fill="#FFFFFF" d="M518.1,23.1l-0.9-0.7l5.7-7.1l0.9,0.7L518.1,23.1z"/>
		<path fill="#FFFFFF" d="M521.7,22.1l4.2-4.4l0.8,0.8l-3.3,3.5l-1.5,0.2L521.7,22.1z"/>
		<path fill="#FFFFFF" d="M524.6,28.6c0.6,0.8,1.3,1.2,2.2,1.3c0.9,0.1,2-0.2,3.3-0.9l3.4-2l0.7,0.9l-3.4,2c-0.5,0.3-1,0.6-1.5,0.7
			s-0.9,0.3-1.2,0.3c-0.3,0-0.7,0.1-1.1,0c-0.4,0-0.8-0.1-1.1-0.3c-0.4-0.1-0.7-0.4-1.1-0.7c-0.4-0.3-0.7-0.7-1-1.1l-1.8-2.4
			l6.9-5.9l0.7,1l-3.9,3.3l0.8,0.6c0.6,0.4,1.4,0.4,2.3-0.1l2.4-1.4l0.7,0.9l-2.1,1.2c-0.3,0.2-0.5,0.3-0.8,0.4
			c-0.2,0.1-0.5,0.2-0.8,0.3c-0.3,0.1-0.6,0.1-0.8,0.1c-0.3,0-0.5-0.1-0.8-0.2c-0.3-0.1-0.6-0.3-0.9-0.5l-0.7-0.6l-1.7,1.4
			L524.6,28.6z"/>
		<path fill="#FFFFFF" d="M529.2,37.5c0.3-0.1,0.6-0.1,0.8,0c0.2,0.1,0.3,0.2,0.4,0.5c0.1,0.3,0.1,0.5,0,0.7
			c-0.1,0.2-0.3,0.3-0.6,0.4c-0.3,0.1-0.5,0.1-0.7,0c-0.2-0.1-0.4-0.3-0.4-0.5s-0.1-0.5,0-0.7C528.7,37.7,528.9,37.6,529.2,37.5z"/>
		<path fill="#FFFFFF" d="M539.5,43.2c0.1,0.9,0,1.6-0.5,2.1c-0.5,0.5-1.1,0.9-2.1,1l-6.1,1l-0.5-3.1l0.9-0.2l0.3,1.9l5.2-0.9
			c1.4-0.2,1.9-1,1.7-2.2c0-0.2-0.1-0.4-0.2-0.6s-0.2-0.4-0.4-0.5c-0.3-0.3-0.5-0.4-0.7-0.5l-0.1-0.1l-7.1,0.5l-0.2-1.2l7-0.5
			c0,0,0.1,0,0.2,0c0.1,0,0.3-0.1,0.6-0.2c0.3-0.1,0.6-0.3,0.8-0.4l0.4-0.3l0.2,1.2c-0.2,0.2-0.5,0.3-0.9,0.5l0,0
			c0.3,0.2,0.6,0.4,0.9,0.7c0.1,0.2,0.2,0.4,0.4,0.7C539.3,42.6,539.4,42.9,539.5,43.2z"/>
		<path fill="#FFFFFF" d="M531.5,49.1c0.3,0,0.6,0.1,0.7,0.2s0.3,0.3,0.3,0.6c0,0.3-0.1,0.5-0.2,0.6s-0.4,0.2-0.7,0.2
			c-0.3,0-0.5-0.1-0.7-0.2c-0.2-0.2-0.3-0.4-0.3-0.6c0-0.3,0.1-0.5,0.2-0.6C530.9,49.2,531.2,49.1,531.5,49.1z"/>
		<path fill="#FFFFFF" d="M538.9,59.8l-0.8-0.1c-0.1-1-0.7-1.6-1.8-1.7l-6.2-0.9l0.2-1.2l6.2,0.9c0.3,0,0.5,0.1,0.7,0.2
			c0.2,0.1,0.4,0.2,0.5,0.3c0.2,0.2,0.4,0.4,0.4,0.6l0,0.1l0,0l0.7-4.9l0.9,0.1L538.9,59.8z"/>
	</g>
	<g>
		<path fill="#FFFFFF" d="M473.8,87.8l-1-0.6l5.3-8.8l1,0.6L473.8,87.8z"/>
		<path fill="#FFFFFF" d="M479.5,89.6c0.7,0.3,1.3,0.4,1.8,0.3c0.5-0.1,0.8-0.4,1-0.9c0.1-0.3,0.2-0.6,0.1-0.9
			c0-0.3-0.2-0.6-0.4-0.9c-0.2-0.3-0.6-0.7-1.2-1.2c-0.8-0.7-1.2-1.3-1.4-1.9s-0.2-1.2,0.1-2c0.3-0.7,0.8-1.2,1.5-1.4
			s1.6-0.1,2.5,0.2s1.7,0.9,2.4,1.6l-0.7,0.8c-0.7-0.6-1.3-1.1-2.1-1.4c-0.6-0.2-1.1-0.3-1.5-0.2c-0.4,0.1-0.7,0.4-0.9,0.9
			c-0.1,0.3-0.2,0.6-0.1,0.9c0,0.3,0.2,0.5,0.4,0.8c0.2,0.3,0.6,0.7,1.1,1.1c0.9,0.8,1.4,1.4,1.6,2c0.2,0.6,0.2,1.2-0.1,1.8
			c-0.3,0.8-0.9,1.4-1.7,1.6c-0.8,0.2-1.7,0.1-2.8-0.3c-1.1-0.4-1.9-0.9-2.4-1.5L477,88C477.7,88.7,478.5,89.2,479.5,89.6z"/>
		<path fill="#FFFFFF" d="M487.5,82.5l2.8,0.4c1.2,0.2,2.1,0.6,2.6,1.2c0.5,0.6,0.7,1.3,0.6,2.3c-0.2,1.3-1,2.1-2.5,2.4l2,5
			l-1.4-0.2l-1.8-4.6l-2.1-0.3l-0.7,4.2l-1.2-0.2L487.5,82.5z M488.5,83.8l-0.6,3.9l1.6,0.3c0.8,0.1,1.5,0.1,1.9-0.2
			c0.4-0.3,0.7-0.7,0.8-1.4c0.1-0.7,0-1.2-0.4-1.5c-0.3-0.4-1-0.6-1.8-0.8L488.5,83.8z"/>
		<path fill="#FFFFFF" d="M503.9,93.2l-1.2,0.1l-1.5-3.2l-4.1,0.3l-1,3.4l-1.2,0.1l3.2-10.6l1-0.1L503.9,93.2z M500.7,89.1l-1.4-3.1
			c-0.2-0.4-0.4-0.9-0.6-1.4c-0.1,0.4-0.2,1-0.3,1.5l-1,3.3L500.7,89.1z"/>
		<path fill="#FFFFFF" d="M509.3,81.9l-4.3,1.4l1,3.2l4.1-1.3l0.3,1l-4.1,1.3l1.2,3.6l4.3-1.4l0.3,1l-5.5,1.7l-3.1-9.8l5.5-1.7
			L509.3,81.9z"/>
		<path fill="#FFFFFF" d="M515.9,87.7l4-2.2l0.5,0.9l-5,2.8l-5.1-9l1-0.6L515.9,87.7z"/>
	</g>
	<path fill="#C4D7F2" d="M513.3,66.6c0.1-0.1,0.2-0.2,0.3-0.3c0.1-0.1,0.2-0.2,0.3-0.4c0.1-0.1,0.1-0.2,0.2-0.3
		c0.1-0.1,0.2-0.3,0.3-0.4c0-0.1,0.1-0.1,0.1-0.2c4.9-7.1,7.4-18.4,7.5-18.9c0-0.1,0-0.3-0.1-0.4c-0.1-0.1-0.2-0.2-0.3-0.2
		c0,0-0.5-0.1-1.3-0.1c0,0,0,0,0,0c0,0-0.1,0-0.1,0c-0.3,0-0.7,0-1.1,0c-0.1,0-0.1,0-0.2,0c-0.4,0-0.8,0-1.2,0c0,0-0.1,0-0.1,0
		c-1.4,0-3.1,0.1-5,0.3c-0.4,0-0.8,0.1-1.1,0.1c0,0,0,0,0,0c-2.3,0.3-4.7,0.9-6.9,1.9c0-0.1,0-0.2-0.1-0.3c0-0.2-0.1-0.4-0.1-0.6
		c0-0.1,0-0.2-0.1-0.3c-0.1-0.2-0.1-0.5-0.2-0.7c0,0,0-0.1,0-0.1c-2.1-8.3-7.2-16.2-7.5-16.7c-0.1-0.1-0.2-0.2-0.4-0.2
		c-0.2,0-0.3,0.1-0.4,0.2c-0.3,0.4-6.6,9.2-8.8,18.2c0,0,0,0.1,0,0.1c-3.1-1.5-6.8-2.3-10-2.6c-1.8-0.2-3.5-0.2-4.8-0.2
		c-1.4,0-2.3,0.1-2.4,0.1c-0.1,0-0.3,0.1-0.4,0.2c-0.1,0.1-0.1,0.3-0.1,0.4c0.1,0.5,2,10.2,6.1,17.4c0,0.1,0.1,0.1,0.1,0.2
		c0.1,0.2,0.2,0.3,0.3,0.5c0.1,0.1,0.1,0.2,0.2,0.3c0.1,0.2,0.2,0.3,0.3,0.5c0.1,0.1,0.2,0.2,0.2,0.3c0.1,0.1,0.2,0.3,0.3,0.4
		c0.2,0.2,0.3,0.5,0.5,0.7c0.1,0.1,0.1,0.2,0.2,0.2c0.1,0.2,0.2,0.3,0.3,0.4c0.1,0.1,0.1,0.2,0.2,0.3c0.1,0.1,0.2,0.3,0.3,0.4
		c0.1,0.1,0.1,0.2,0.2,0.2c0.1,0.1,0.3,0.3,0.4,0.4c0.1,0.1,0.1,0.1,0.2,0.2c0.2,0.2,0.3,0.4,0.5,0.5c2.2,1.9,4.8,2.9,7.8,2.9v0
		c0,0,0.2,0,0.2,0c0.2,0,0.5,0,0.7-0.1c0.1,0,0.2,0,0.3,0c0.1,0,0.3,0,0.4,0c0.2,0,0.4-0.1,0.6-0.1c0.1,0,0.1,0,0.2,0
		c2.5-0.4,4.5-1.3,5.4-1.8c0.7,0.4,3.1,1.8,6.2,2.3c0.1,0,0.1,0,0.2,0c0.2,0,0.4,0.1,0.5,0.1c0.1,0,0.2,0,0.3,0c0.1,0,0.3,0,0.4,0
		c0.2,0,0.4,0,0.5,0c0.1,0,0.2,0,0.2,0c2.8,0,5.3-0.9,7.5-2.6c0,0,0,0,0,0c0.2-0.2,0.4-0.3,0.6-0.5c0.1-0.1,0.1-0.1,0.2-0.2
		c0.1-0.1,0.2-0.2,0.4-0.4c0.1-0.1,0.2-0.2,0.3-0.3c0.1-0.1,0.2-0.2,0.3-0.3C513.1,66.8,513.2,66.7,513.3,66.6z M496.7,30.7
		c1.9,4.3,4.9,11.7,5.8,18c-0.7,0.4-1.3,0.9-1.9,1.4c-0.2,0.2-0.4,0.4-0.6,0.5c-0.1,0.1-0.1,0.1-0.2,0.2c-0.1,0.1-0.2,0.2-0.3,0.3
		c-0.1,0.1-0.2,0.2-0.2,0.3c-0.1,0.1-0.1,0.2-0.2,0.2c-1.3,1.7-2.3,3.6-2.9,5.4c0-0.4,0-0.8,0-1.2l0.2-7l0.1-7c0-1.5,0-2.8,0-4.1
		c0-0.7,0-1.4,0-2c0-1.2,0-2.3,0-3.1c0-0.4,0-0.8,0-1.2l0-1.1C496.5,30.4,496.6,30.5,496.7,30.7z M494.4,68.3
		c-1.5,0.3-2.9,0.4-4.2,0.4c-3.6,0-6.5-1-8.8-2.9c-4.6-4-8.6-13.9-10.5-19.5c-0.1-0.3-0.1-0.5-0.2-0.7l0.7,0.7
		c0.2,0.2,0.5,0.5,0.8,0.8c0.6,0.6,1.2,1.2,2,1.9c0.4,0.4,0.8,0.8,1.2,1.2c0.8,0.8,1.8,1.7,2.7,2.6l4.6,4.2l4.6,4.2
		c0.9,0.9,1.9,1.7,2.7,2.4C491.7,65.9,493.6,67.5,494.4,68.3C494.5,68.2,494.4,68.2,494.4,68.3z M509.2,66.1c-2.2,1.8-4.9,2.7-8,2.7
		h0c-1.4,0-2.9-0.2-4.4-0.6l0.4-0.3c0.2-0.2,0.5-0.4,0.8-0.7c0.6-0.5,1.3-1.1,2.1-1.7c0.4-0.4,0.9-0.7,1.4-1.1
		c0.9-0.7,1.8-1.5,2.8-2.3l4.7-4l4.7-4c1-0.8,1.9-1.7,2.8-2.4c0.5-0.4,0.9-0.8,1.3-1.2c0.8-0.7,1.5-1.3,2.1-1.8
		c0.1-0.1,0.2-0.2,0.4-0.3C518.3,53.4,514.5,61.9,509.2,66.1z M502,52.3c0.2-0.2,0.5-0.4,0.7-0.6c0,0.4,0,0.8,0,1.2
		c-0.3,5.8-3.6,10.8-6.4,14.1c0.1-0.8,0.1-1.9,0.1-3.2C497.3,59.7,498.9,55.1,502,52.3z M489.4,52.9c0-0.1,0-0.1,0-0.2c0,0,0,0,0,0
		c2.9,2.8,4.4,6.8,5.2,10.5c0,0.8,0,1.5,0,2.1c0,0.3,0,0.5,0,0.7c-0.1-0.1-0.3-0.3-0.4-0.4c-0.4-0.4-0.8-0.8-1.3-1.2
		C491.1,61.3,489.4,57.4,489.4,52.9z M495.3,32.6c0,0.9-0.1,2-0.1,3.2c0,0.6,0,1.3-0.1,1.9c0,1.3-0.1,2.7-0.1,4.2l-0.2,7l-0.1,6.3
		c-0.5-1.3-1.2-2.5-2.1-3.7c0,0,0,0,0,0c-0.1-0.2-0.3-0.4-0.4-0.6c-0.1-0.1-0.1-0.1-0.2-0.2c-0.1-0.1-0.2-0.3-0.3-0.4
		c-0.2-0.2-0.3-0.3-0.5-0.5c0,0,0,0-0.1-0.1c-0.4-0.4-0.8-0.7-1.3-1.1c0.9-6.4,3.6-12.7,5.5-16.6C495.3,32.2,495.3,32.4,495.3,32.6z
		 M486.6,50.6c0,0.2,0,0.4,0,0.6c0,0.1,0,0.2,0,0.3c0,0.3,0,0.6,0,0.9c0,0.3,0,0.6,0,0.9c0,0.1,0,0.2,0,0.3c0,0.2,0,0.4,0,0.6
		c0,0.1,0,0.2,0,0.3c0,0.2,0,0.4,0.1,0.6c0,0.1,0,0.2,0,0.2c0,0.2,0.1,0.4,0.1,0.7c0,0.1,0,0.1,0,0.2c0.1,0.2,0.1,0.5,0.2,0.7
		c0,0,0,0,0,0.1c0.2,0.9,0.5,1.8,0.8,2.6l-4.2-3.9l-4.6-4.2c-1-0.9-1.9-1.7-2.8-2.5c-0.5-0.4-0.9-0.8-1.3-1.1
		c-0.8-0.7-1.5-1.3-2.1-1.8c-0.2-0.2-0.4-0.4-0.6-0.5c3.6,0.5,9.5,1.8,14.3,4.9C486.6,50.5,486.6,50.5,486.6,50.6z M521,46.4l-1,0.8
		c-0.3,0.2-0.5,0.4-0.9,0.7c-0.6,0.5-1.3,1-2.1,1.7c-0.4,0.4-0.9,0.7-1.4,1.1c-0.9,0.7-1.8,1.5-2.8,2.3l-4.7,4l-4.7,4
		c-0.3,0.3-0.6,0.6-0.9,0.8c1-1.7,1.9-3.7,2.3-6c0,0,0,0,0,0c0.1-0.3,0.1-0.5,0.1-0.8c0-0.1,0-0.1,0-0.2c0-0.2,0.1-0.4,0.1-0.7
		c0-0.1,0-0.2,0-0.2c0-0.3,0-0.6,0.1-0.9c0-0.3,0-0.6,0-0.9c0-0.1,0-0.2,0-0.3c0-0.2,0-0.4,0-0.6c0-0.1,0-0.2,0-0.4
		c0-0.2,0-0.4,0-0.6c0,0,0,0,0-0.1c4.8-2.5,11.3-3.5,15.3-3.9C520.6,46.3,520.8,46.4,521,46.4C521,46.4,521,46.4,521,46.4z"/>
</g>
</svg>
