<?xml version="1.0" encoding="utf-8"?>
<!-- Generator: Adobe Illustrator 18.1.1, SVG Export Plug-In . SVG Version: 6.00 Build 0)  -->
<!DOCTYPE svg PUBLIC "-//W3C//DTD SVG 1.1//EN" "http://www.w3.org/Graphics/SVG/1.1/DTD/svg11.dtd">
<svg version="1.1" id="Layer_1" xmlns="http://www.w3.org/2000/svg" xmlns:xlink="http://www.w3.org/1999/xlink" x="0px" y="0px"
	 width="745.3px" height="202.1px" viewBox="0 0 745.3 202.1" enable-background="new 0 0 745.3 202.1" xml:space="preserve">
<circle fill="#174894" cx="644.3" cy="101.1" r="101.1"/>
<g>
	<path fill="#FFFFFF" d="M575.8,39.9l7.4-5.9l17,10.8l-6.7-19l7.2-5.7l7.8,27.5l-7.7,6.1L575.8,39.9z"/>
	<path fill="#FFFFFF" d="M614.9,35.8l8.1-3.1l2.6,6.9l-8.1,3.1L614.9,35.8z"/>
	<path fill="#FFFFFF" d="M647.6,27.5l0.2-5.5l14,0.5l-0.4,11.3c-2.7,1.5-5.1,2.6-7.2,3.1s-4.5,0.7-7.4,0.6c-3.5-0.1-6.3-0.8-8.5-1.9
		c-2.2-1.1-3.8-2.8-4.9-5c-1.1-2.2-1.7-4.6-1.6-7.3c0.1-2.9,0.8-5.4,2.2-7.4s3.4-3.6,6-4.6c2-0.8,4.7-1.1,8.1-1
		c3.2,0.1,5.7,0.5,7.2,1c1.6,0.6,2.9,1.5,3.9,2.6c1,1.1,1.8,2.6,2.2,4.3l-8.8,1.1c-0.3-1-0.9-1.8-1.8-2.4s-1.9-0.9-3.3-0.9
		c-2-0.1-3.6,0.5-4.8,1.7c-1.2,1.2-1.9,3.1-2,5.8c-0.1,2.9,0.4,4.9,1.6,6.2c1.2,1.3,2.8,1.9,4.9,2c1,0,2-0.1,2.9-0.3
		c0.9-0.2,2-0.6,3.2-1.2l0.1-2.5L647.6,27.5z"/>
	<path fill="#FFFFFF" d="M670.7,34.6l7.9,3.7l-3.1,6.7l-7.9-3.7L670.7,34.6z"/>
	<path fill="#FFFFFF" d="M699.6,29.3l6.9,5.9l-17.2,20.1l-6.9-5.9L699.6,29.3z"/>
</g>
<g>
	<path fill="#FFFFFF" d="M577.3,158.3l15.4-13.9l2.8,3.1l-15.5,13.9L577.3,158.3z"/>
	<path fill="#FFFFFF" d="M592.5,164.3l3.6,1.9c-0.5,1.3-0.7,2.4-0.4,3.3c0.3,0.9,0.9,1.8,2,2.5c1.1,0.7,2.1,1.1,3,1
		c0.9-0.1,1.5-0.5,2-1.1c0.3-0.4,0.4-0.8,0.3-1.3c-0.1-0.4-0.3-1-0.8-1.6c-0.3-0.4-1.1-1.3-2.3-2.6c-1.6-1.7-2.5-3.1-2.8-4.3
		c-0.4-1.7-0.2-3.2,0.7-4.5c0.6-0.9,1.4-1.5,2.4-2c1-0.4,2.1-0.6,3.3-0.3s2.5,0.8,3.8,1.6c2.2,1.4,3.5,3,4,4.7s0.2,3.3-0.8,5
		l-3.6-2.1c0.4-1,0.5-1.8,0.3-2.6c-0.2-0.7-0.8-1.4-1.8-2c-1-0.7-2-1-2.8-0.9c-0.5,0-1,0.3-1.3,0.7c-0.3,0.4-0.3,0.9-0.2,1.4
		c0.2,0.7,1,1.8,2.5,3.3c1.4,1.5,2.4,2.8,3,3.7c0.5,1,0.8,2,0.8,3c0,1-0.4,2.1-1.1,3.2c-0.7,1-1.5,1.7-2.7,2.2
		c-1.1,0.5-2.3,0.6-3.6,0.4s-2.7-0.9-4.2-1.8c-2.2-1.4-3.5-3.1-4.1-4.8C591.1,168.3,591.4,166.4,592.5,164.3z"/>
	<path fill="#FFFFFF" d="M615.6,184.7l4.8-20.2l8.6,2.1c2.2,0.5,3.7,1.1,4.6,1.7s1.5,1.4,1.9,2.5c0.4,1.1,0.4,2.2,0.1,3.4
		c-0.4,1.5-1.1,2.7-2.2,3.4s-2.6,1.1-4.4,0.9c0.8,0.7,1.4,1.5,1.8,2.2c0.4,0.8,0.9,2,1.5,3.8l1.5,4.5l-4.9-1.2l-1.9-5.1
		c-0.7-1.8-1.1-3-1.4-3.5c-0.3-0.5-0.6-0.9-1-1.1s-1.1-0.5-2-0.7l-0.8-0.2l-2,8.4L615.6,184.7z M622.4,174.1l3,0.7
		c2,0.5,3.2,0.7,3.7,0.6c0.5,0,1-0.2,1.3-0.6c0.4-0.3,0.6-0.8,0.8-1.4c0.2-0.7,0.1-1.3-0.1-1.8c-0.3-0.5-0.7-0.9-1.3-1.2
		c-0.3-0.1-1.3-0.4-3-0.8l-3.2-0.8L622.4,174.1z"/>
	<path fill="#FFFFFF" d="M665,187.3l-4.5,0.5l-2.4-4.5l-8.2,1l-1.1,4.9l-4.4,0.5l5.6-21.6l4.4-0.5L665,187.3z M656.4,180l-3.7-7.3
		l-1.9,8L656.4,180z"/>
	<path fill="#FFFFFF" d="M676.9,183.2l-9.3-18.6l13.8-6.9l1.6,3.1l-10,5l2.1,4.1l9.3-4.7l1.6,3.1l-9.3,4.7l2.5,5l10.4-5.2l1.6,3.1
		L676.9,183.2z"/>
	<path fill="#FFFFFF" d="M702,167.9l-14.6-14.5l3-3l12.1,12.1l7.4-7.4l2.5,2.5L702,167.9z"/>
</g>
<path fill="#C1D7F1" d="M636.1,141.8c-15.5,0-37.3-4-52.6-17.7c-7.6-6.8-7.3-10.7-7-12c1-5.4,9.7-9.4,22-10.1
	c-10-12.8-9.5-27.2-4-31.5c5.6-4.3,22.8-0.8,32.7,13.3c1.4-17.5,7.6-34.2,17.6-34.2s16.3,9.7,17.7,27.2c9.9-14,21.7-17.7,27.2-13.3
	c5.4,4.2,7.5,21.9-0.5,34.2c12.3,0.7,21.7,4,23.2,8.6s-0.1,10.8-7.7,17.6c-15.2,13.7-33.1,17.9-48.6,17.9h0.3v9.5
	c0,4.7-4.3,9.5-9.1,9.5h-2.2c-4.7,0-8.7-4.8-8.7-9.5v-9.5H636.1z M626.7,131c-0.2-0.2-0.5-0.4-0.9-0.7c-0.8-0.6-1.9-1.4-3.3-2.3
	c-1.4-0.9-3.1-1.8-4.9-2.6c-0.9-0.4-1.9-0.8-2.9-1.2c-1-0.4-2-0.7-3-1.1c-1-0.3-2-0.6-3.1-0.9c-1-0.3-2-0.5-3-0.7
	c-2-0.4-3.8-0.7-5.5-0.8c-1.6-0.1-3-0.2-4-0.1c-0.5,0-0.9,0.1-1.2,0.1c-0.3,0-0.4,0-0.4,0s0.1,0.1,0.3,0.3c0.2,0.2,0.5,0.5,0.9,0.7
	c0.8,0.6,1.9,1.4,3.3,2.3c1.4,0.9,3.1,1.8,4.9,2.6c0.9,0.4,1.9,0.8,2.9,1.2c1,0.4,2,0.7,3,1.1c1,0.3,2,0.6,3.1,0.9
	c1,0.3,2,0.5,3,0.7c2,0.4,3.8,0.7,5.5,0.8c1.6,0.1,3,0.2,4,0.1c0.5,0,0.9,0,1.2-0.1c0.3,0,0.4,0,0.4,0S626.9,131.2,626.7,131z
	 M633.1,121.3c-0.2-0.2-0.5-0.4-0.9-0.7c-0.8-0.6-1.9-1.4-3.3-2.3c-1.4-0.9-3.1-1.8-4.9-2.6c-0.9-0.4-1.9-0.8-2.9-1.2
	c-1-0.4-2-0.7-3-1.1c-1-0.3-2-0.6-3.1-0.9c-1-0.3-2-0.5-3-0.7c-2-0.4-3.8-0.7-5.5-0.8c-1.6-0.1-3-0.2-4-0.1c-0.5,0-0.9,0.1-1.2,0.1
	c-0.3,0-0.4,0-0.4,0s0.1,0.1,0.3,0.3c0.2,0.2,0.5,0.5,0.9,0.7c0.8,0.6,1.9,1.4,3.3,2.3c1.4,0.9,3.1,1.8,4.9,2.6
	c0.9,0.4,1.9,0.8,2.9,1.2c1,0.4,2,0.7,3,1.1c1,0.3,2,0.6,3.1,0.9c1,0.3,2,0.5,3,0.7c2,0.4,3.8,0.7,5.5,0.8c1.6,0.1,3,0.2,4,0.1
	c0.5,0,0.9,0,1.2-0.1c0.3,0,0.4,0,0.4,0S633.3,121.5,633.1,121.3z M618.1,107.7c0-0.2,0-0.5,0-0.9c-0.1-0.7-0.2-1.8-0.5-2.9
	c-0.3-1.2-0.7-2.5-1.3-3.8c-0.6-1.3-1.3-2.7-2.1-4c-1.6-2.6-3.6-4.9-5.5-6.5c-0.9-0.8-1.8-1.4-2.4-1.7c-0.3-0.2-0.6-0.3-0.8-0.4
	c-0.2-0.1-0.3-0.1-0.3-0.1s0,0.1,0,0.3c0,0.2,0,0.5,0,0.9c0.1,0.8,0.2,1.8,0.5,3c0.6,2.3,1.7,5.2,3.3,7.8c0.8,1.3,1.7,2.5,2.7,3.6
	c0.9,1.1,1.9,2.1,2.8,2.8c0.9,0.8,1.8,1.4,2.4,1.8c0.3,0.2,0.6,0.3,0.8,0.4c0.2,0.1,0.3,0.1,0.3,0.1S618.1,107.9,618.1,107.7z
	 M629,103.9c0-0.2-0.1-0.6-0.2-1.1c-0.2-0.9-0.5-2.2-1-3.6c-0.5-1.5-1.2-3.1-2-4.8c-0.4-0.8-0.9-1.7-1.4-2.6c-0.5-0.9-1-1.7-1.5-2.5
	c-0.6-0.8-1.1-1.7-1.7-2.4c-0.6-0.8-1.2-1.6-1.8-2.3c-1.2-1.4-2.4-2.7-3.6-3.8c-1.1-1-2.2-1.9-2.9-2.4c-0.4-0.3-0.7-0.5-0.9-0.6
	c-0.2-0.1-0.3-0.2-0.3-0.2s0,0.1,0.1,0.4c0,0.2,0.1,0.6,0.2,1.1c0.2,0.9,0.5,2.2,1,3.6c0.5,1.5,1.2,3.1,2,4.8
	c0.4,0.8,0.9,1.7,1.4,2.5c0.5,0.9,1,1.7,1.6,2.5c0.6,0.8,1.1,1.7,1.7,2.4c0.6,0.8,1.2,1.6,1.8,2.3c1.2,1.4,2.4,2.7,3.6,3.8
	c1.1,1,2.2,1.9,2.9,2.4c0.4,0.3,0.7,0.5,0.9,0.6c0.2,0.1,0.3,0.2,0.3,0.2S629.1,104.2,629,103.9z M642.4,119.9
	c0.1-0.4,0.2-1,0.3-1.7c0.2-1.4,0.4-3.5,0.5-5.9c0.1-2.4,0.2-5.3,0.1-8.3c0-1.5-0.1-3.1-0.2-4.6c-0.1-1.6-0.2-3.2-0.4-4.8
	c-0.2-1.6-0.3-3.2-0.6-4.8c-0.2-1.6-0.5-3.1-0.7-4.6c-0.5-3-1.1-5.7-1.7-8.1c-0.6-2.4-1.2-4.3-1.7-5.7c-0.2-0.7-0.5-1.2-0.6-1.6
	c-0.2-0.4-0.2-0.6-0.2-0.6s0,0.2-0.1,0.6c-0.1,0.4-0.2,1-0.3,1.7c-0.2,1.4-0.4,3.5-0.5,5.9c-0.1,2.4-0.2,5.3-0.1,8.3
	c0,1.5,0.1,3.1,0.2,4.6c0.1,1.6,0.2,3.2,0.4,4.8c0.2,1.6,0.4,3.2,0.6,4.8c0.2,1.6,0.5,3.1,0.7,4.6c0.5,3,1.1,5.7,1.7,8.1
	c0.6,2.4,1.2,4.3,1.7,5.7c0.2,0.7,0.5,1.2,0.6,1.6c0.1,0.4,0.2,0.6,0.2,0.6S642.3,120.3,642.4,119.9z M666.1,131.3
	c0.3,0,0.7,0.1,1.2,0.1c1,0,2.4,0,4-0.1c1.6-0.1,3.5-0.4,5.5-0.8c1-0.2,2-0.4,3-0.7c1-0.3,2-0.6,3.1-0.9c1-0.3,2-0.7,3-1.1
	c1-0.4,1.9-0.8,2.9-1.2c1.8-0.8,3.5-1.7,4.9-2.6c1.4-0.9,2.5-1.7,3.3-2.3c0.4-0.3,0.7-0.6,0.9-0.7c0.2-0.2,0.3-0.3,0.3-0.3
	s-0.1,0-0.4,0c-0.3,0-0.7-0.1-1.2-0.1c-1,0-2.4,0-4,0.1c-1.6,0.1-3.5,0.4-5.5,0.8c-1,0.2-2,0.4-3,0.7c-1,0.3-2,0.6-3.1,0.9
	c-1,0.4-2,0.7-3,1.1c-1,0.4-1.9,0.8-2.9,1.2c-1.8,0.8-3.5,1.7-4.9,2.6c-1.4,0.9-2.5,1.7-3.3,2.3c-0.4,0.3-0.7,0.6-0.9,0.7
	c-0.2,0.2-0.3,0.3-0.3,0.3S665.8,131.3,666.1,131.3z M659.6,121.6c0.3,0,0.7,0.1,1.2,0.1c1,0,2.4,0,4-0.1c1.6-0.1,3.5-0.4,5.5-0.8
	c1-0.2,2-0.4,3-0.7c1-0.3,2-0.6,3.1-0.9c1-0.3,2-0.7,3-1.1c1-0.4,1.9-0.8,2.9-1.2c1.8-0.8,3.5-1.7,4.9-2.6c1.4-0.9,2.5-1.7,3.3-2.3
	c0.4-0.3,0.7-0.6,0.9-0.7c0.2-0.2,0.3-0.3,0.3-0.3s-0.1,0-0.4,0c-0.3,0-0.7-0.1-1.2-0.1c-1,0-2.4,0-4,0.1c-1.6,0.1-3.5,0.4-5.5,0.8
	c-1,0.2-2,0.4-3,0.7c-1,0.3-2,0.6-3.1,0.9c-1,0.4-2,0.7-3,1.1c-1,0.4-1.9,0.8-2.9,1.2c-1.8,0.8-3.5,1.7-4.9,2.6
	c-1.4,0.9-2.5,1.7-3.3,2.3c-0.4,0.3-0.7,0.6-0.9,0.7c-0.2,0.2-0.3,0.3-0.3,0.3S659.3,121.6,659.6,121.6z M674.9,107.9
	c0.2-0.1,0.5-0.2,0.8-0.4c0.6-0.4,1.5-1,2.4-1.8c0.9-0.8,1.9-1.7,2.8-2.8c0.9-1.1,1.9-2.3,2.7-3.6c1.6-2.6,2.8-5.4,3.3-7.8
	c0.3-1.2,0.4-2.2,0.5-3c0-0.4,0-0.7,0-0.9c0-0.2,0-0.3,0-0.3s-0.1,0-0.3,0.1c-0.2,0.1-0.5,0.2-0.8,0.4c-0.6,0.4-1.5,1-2.4,1.7
	c-1.8,1.5-3.9,3.9-5.5,6.5c-0.8,1.3-1.5,2.7-2.1,4c-0.6,1.3-1,2.6-1.3,3.8c-0.3,1.2-0.4,2.2-0.5,2.9c0,0.4,0,0.7,0,0.9
	c0,0.2,0,0.3,0,0.3S674.7,108,674.9,107.9z M663.9,104.1c0.2-0.1,0.5-0.3,0.9-0.6c0.8-0.5,1.8-1.4,2.9-2.4c1.1-1,2.4-2.3,3.6-3.8
	c0.6-0.7,1.2-1.5,1.8-2.3c0.6-0.8,1.1-1.6,1.7-2.4c0.5-0.8,1.1-1.7,1.6-2.5c0.5-0.8,0.9-1.7,1.4-2.5c0.8-1.7,1.5-3.3,2-4.8
	c0.5-1.5,0.8-2.7,1-3.6c0.1-0.4,0.2-0.8,0.2-1.1c0-0.3,0.1-0.4,0.1-0.4s-0.1,0.1-0.3,0.2c-0.2,0.1-0.5,0.3-0.9,0.6
	c-0.8,0.5-1.8,1.4-2.9,2.4c-1.1,1-2.4,2.3-3.6,3.8c-0.6,0.7-1.2,1.5-1.8,2.3c-0.6,0.8-1.1,1.6-1.7,2.4c-0.5,0.8-1.1,1.7-1.5,2.5
	c-0.5,0.8-0.9,1.7-1.4,2.6c-0.8,1.7-1.5,3.3-2,4.8c-0.5,1.5-0.8,2.7-1,3.6c-0.1,0.4-0.2,0.8-0.2,1.1c0,0.3-0.1,0.4-0.1,0.4
	S663.7,104.3,663.9,104.1z M650.6,119.9c0.1-0.4,0.4-0.9,0.6-1.6c0.5-1.4,1.1-3.3,1.7-5.7c0.6-2.4,1.2-5.1,1.7-8.1
	c0.3-1.5,0.5-3,0.7-4.6c0.2-1.6,0.4-3.2,0.6-4.8c0.1-1.6,0.3-3.2,0.4-4.8c0.1-1.6,0.2-3.1,0.2-4.6c0.1-3,0-5.8-0.1-8.3
	c-0.1-2.4-0.3-4.5-0.5-5.9c-0.1-0.7-0.2-1.3-0.3-1.7c-0.1-0.4-0.1-0.6-0.1-0.6s-0.1,0.2-0.2,0.6c-0.1,0.4-0.4,0.9-0.6,1.6
	c-0.5,1.4-1.1,3.3-1.7,5.7c-0.6,2.4-1.2,5.1-1.7,8.1c-0.3,1.5-0.5,3-0.7,4.6c-0.2,1.6-0.4,3.2-0.6,4.8c-0.1,1.6-0.3,3.2-0.4,4.8
	c-0.1,1.6-0.2,3.1-0.2,4.6c-0.1,3,0,5.8,0.1,8.3c0.1,2.4,0.3,4.5,0.5,5.9c0.1,0.7,0.2,1.3,0.3,1.7c0.1,0.4,0.1,0.6,0.1,0.6
	S650.5,120.3,650.6,119.9z M649.5,142.1c0-1.8-1.5-3.3-3.3-3.3h-0.3c-1.8,0-3.3,1.5-3.3,3.3v6.3c0,1.8,1.5,3.3,3.3,3.3h0.3
	c1.8,0,3.3-1.5,3.3-3.3V142.1z"/>
<g>
	<path d="M386.6,96.1l0.5,2.7h0.3l0.5-2.5l11.5-51.7h14.2l-19.3,69.2h-14.1L361,44.6h14.2L386.6,96.1z"/>
	<path d="M416.5,113.8h-13.4v-12.3h13.4V113.8z"/>
	<path d="M467.8,103.5c-1.9,3-4.7,5.6-8.4,7.9c-3.7,2.3-8.5,3.4-14.2,3.4c-7.4,0-13.4-2.2-17.8-6.5c-4.5-4.3-6.7-10.5-6.7-18.5V68.6
		c0-8,2.2-14.1,6.5-18.5c4.3-4.4,10.1-6.6,17.2-6.6c7.7,0,13.4,1.9,17.3,5.6c3.8,3.8,5.8,9.1,6,16.1l-0.1,0.3h-12.7
		c-0.1-3.9-1-6.8-2.6-8.5s-4.1-2.7-7.5-2.7c-3.3,0-5.9,1.2-7.7,3.5c-1.9,2.3-2.8,5.9-2.8,10.6v21.2c0,4.9,0.9,8.4,2.8,10.8
		c1.9,2.3,4.6,3.5,8.2,3.5c2.7,0,4.7-0.4,6-1.1c1.3-0.7,2.3-1.8,3.2-3.2V87.2h-9.1v-9.5h22.6V103.5z"/>
	<path d="M485.7,113.8h-13.4v-12.3h13.4V113.8z"/>
	<path d="M505.3,113.8h-13.5V44.6h13.5V113.8z"/>
</g>
<g>
	<path d="M2.5,171.8c-0.7,0-1.6-0.1-2.5-0.3V168c1.2,0.2,1.9,0.3,2,0.3c2.4,0,3.6-1.4,3.6-4.2v-21.2l-3.5,0.3v-3.5
		c4.6-0.5,8.7-0.8,12.2-0.8c3,0,5.4,0.5,7.5,1.4c2.1,1,3.6,2.6,4.4,4.8c0.4,1.2,0.6,2.5,0.6,4v22.4h-4.2V149c0-4.4-3-6.6-8.9-6.6
		c-0.7,0-2,0.1-3.9,0.2v21c0,2.6-0.6,4.7-1.8,6.1S4.9,171.8,2.5,171.8z"/>
	<path d="M41.2,171.4h-4.1v-32.1h4.1V171.4z"/>
	<path d="M73.7,139.3v10.4c0,1.4-0.1,2.5-0.2,3.5c-0.1,1-0.4,2-0.7,3.1c-0.7,2.2-2.3,3.8-4.8,4.8l6.2,10.3h-4.7L61.8,158l-3.8-5.7
		c-0.7,0.2-1.1,0.5-1.4,0.7c-1.6,1.3-2.4,3.4-2.4,6.4v11.9H50V161c0-3.6,0.5-6.3,1.6-8.1c0.4-0.7,1-1.4,1.8-2
		c0.8-0.6,1.7-1.1,2.8-1.5L50,139.3h4.7l7.4,12.4l4.2,6.4c0.8-0.5,1.5-1,1.9-1.5s0.7-1.3,1-2.2c0.3-0.9,0.4-2,0.4-3.2v-11.9H73.7z"
		/>
	<path d="M85,139.3h16.9v3.2L97.6,159L95,171.4h-4.2l2.6-12.5l4.4-16.4H80.8v-9.8H85V139.3z"/>
	<path d="M126.1,170.6v0.8H122v-0.8c0-1.2,0.3-2.9,0.8-4.9c0.5-2.1,0.9-3.6,1.2-4.5c0.5-1.8,1.1-4,1.8-6.5l3.6-12.2h-19.5v-3.2h23.6
		v3.2l-3.7,12.7c-0.4,1.5-0.8,2.8-1.1,3.8c-0.3,1-0.6,2-0.8,3c-0.3,1-0.5,1.9-0.7,2.7c-0.2,0.7-0.4,1.5-0.5,2.3
		C126.3,168.6,126.1,169.8,126.1,170.6z M114,183.7h-4.1v-31.5h4.1V183.7z"/>
	<path d="M141.6,171.4v-32.2c3.9-0.3,7.5-0.4,11-0.4c3,0,5.4,0.5,7.5,1.4c2.1,1,3.6,2.6,4.4,4.8c0.4,1.2,0.6,2.5,0.6,4v22.4h-4.1
		V149c0-4.4-3-6.6-8.9-6.6l-6.3,0.2v28.9H141.6z"/>
	<path d="M177.3,139.3h16.9v3.2l-4.3,16.4l-2.6,12.5h-4.2l2.6-12.5l4.4-16.4h-16.9v-9.8h4.1V139.3z"/>
	<path d="M218.1,171.4v-31.9c2.9-0.4,6.6-0.7,11-0.7c8.3,0,12.5,2.9,12.5,8.8v23.9H218.1z M237.4,168.2v-20c0-1-0.2-1.9-0.5-2.7
		s-0.8-1.3-1.3-1.7c-0.5-0.4-1.2-0.7-2.1-0.9c-0.8-0.2-1.6-0.4-2.4-0.4s-1.6-0.1-2.5-0.1c-2,0-3.9,0.1-5.5,0.2l-0.9,0.1v25.6H237.4z
		"/>
	<path d="M251.6,160.6v-21.3h4.1v17l-3.3,4.2H251.6z"/>
	<path d="M262.8,139c2.3-0.1,4.4-0.2,6.3-0.2s3.4,0.1,4.6,0.3c1.2,0.2,2.4,0.6,3.4,1.1s2,1.1,2.7,1.9c1.5,1.7,2.3,4,2.3,6.9v22.4
		H278V149c0-4.4-3-6.6-8.9-6.6c-1.8,0-3.9,0.1-6.2,0.2V139z"/>
	<path d="M314,171.4h-23.6v-3.2H304l5.7,0.3v-0.1l-8.3-11.2l-11.3-17.9h4.7l9.6,15.5l0.8,1.1c1.3-0.8,2.2-2,2.9-3.8
		c0.7-1.8,1.1-4.2,1.4-7.1l0.5-5.8h4.1l-0.5,5.2c0,0.2-0.1,0.6-0.1,1.3c-0.1,0.7-0.1,1.2-0.2,1.6s-0.1,0.9-0.2,1.7
		c-0.1,0.7-0.2,1.3-0.4,1.8s-0.3,1.1-0.5,1.8s-0.5,1.3-0.8,1.8s-0.7,1.1-1.1,1.6c-0.8,1.1-1.8,2-3.2,2.7l6.8,9.6V171.4z"/>
	<path d="M327.2,171.4H323v-32.1h4.1V171.4z"/>
	<path d="M351,138.8c3.1,0,5.5,0.9,7.1,2.8c1.6,1.9,2.4,4.5,2.4,7.8v22h-11v-3.2h6.8v-18.6c0-4.9-2.2-7.3-6.7-7.3
		c-0.8,0-1.5,0.1-2.3,0.4c-0.8,0.3-1.4,0.6-1.9,1c-1.1,0.8-1.9,1.6-2.3,2.2l-0.3,0.4l-2.4,25.2h-4.2l2.3-24.7c0-0.1,0-0.2,0-0.5
		s-0.1-1.1-0.3-2.3s-0.5-2.2-0.9-3l-0.6-1.5h4.2c0.4,0.7,0.8,1.9,1.1,3.4h0.2c0.9-1,1.9-1.9,3.1-2.5c0.6-0.3,1.5-0.6,2.5-0.9
		C348.8,139,349.9,138.8,351,138.8z"/>
	<path d="M386.6,171.4v-32.2c3.9-0.3,7.5-0.4,11-0.4c3,0,5.4,0.5,7.5,1.4c2.1,1,3.6,2.6,4.4,4.8c0.4,1.2,0.6,2.5,0.6,4v22.4H406V149
		c0-4.4-3-6.6-8.9-6.6l-6.3,0.2v28.9H386.6z"/>
	<path d="M424.6,171.4h-4.1v-32.1h4.1V171.4z"/>
	<path d="M435.4,171.8c-0.7,0-1.6-0.1-2.5-0.3V168c1.2,0.2,1.9,0.3,2,0.3c2.4,0,3.6-1.4,3.6-4.2v-21.2l-3.5,0.3v-3.5
		c4.6-0.5,8.7-0.8,12.2-0.8c3,0,5.4,0.5,7.5,1.4c2.1,1,3.6,2.6,4.4,4.8c0.4,1.2,0.6,2.5,0.6,4v22.4h-4.2V149c0-4.4-3-6.6-8.9-6.6
		c-0.7,0-2,0.1-3.9,0.2v21c0,2.6-0.6,4.7-1.8,6.1S437.8,171.8,435.4,171.8z"/>
	<path d="M469.6,160.6v-21.3h4.1v17l-3.3,4.2H469.6z"/>
	<path d="M482.1,150.3c0-1.8,0.4-3.5,1.1-5c0.7-1.5,1.6-2.7,2.8-3.6c1.2-0.9,2.5-1.6,3.9-2.1c1.4-0.5,2.9-0.7,4.3-0.7
		c1.4,0,2.8,0.2,4,0.6s2.4,1,3.4,1.9c1.1,0.9,2,1.9,2.7,3.2c0.8,1.3,1.3,2.8,1.8,4.7c0.4,1.9,0.6,3.9,0.6,6.2c0,2.3-0.2,4.3-0.6,6.2
		s-1,3.4-1.8,4.7c-0.8,1.3-1.7,2.3-2.7,3.2c-2,1.7-4.5,2.5-7.4,2.5c-2.8,0-5.5-0.2-8.1-0.5l-1.2-0.2v-3.6c0,0,0.4,0.1,1.2,0.2
		c2.6,0.4,5.3,0.6,8.1,0.6c1.3,0,2.4-0.2,3.4-0.7c1-0.5,1.8-1.1,2.4-2s1.1-1.8,1.5-3c0.7-2,1-4.5,1-7.4c0-3.6-0.6-6.6-1.7-9
		c-0.6-1.3-1.5-2.3-2.6-3c-1.1-0.7-2.4-1.1-3.7-1.1c-1.4,0-2.6,0.2-3.5,0.5c-1,0.3-1.8,0.8-2.4,1.3c-0.6,0.5-1.1,1.2-1.5,1.9
		c-0.7,1.3-1.1,2.8-1.1,4.3c0,2.2,0.5,3.9,1.5,5.1s2.6,1.9,4.8,2.3l1.1,0.2l-0.7,3.1l-0.9-0.1c-2.9-0.4-5.2-1.5-7-3.3
		C482.9,155.8,482.1,153.3,482.1,150.3z"/>
</g>
</svg>
