<?xml version="1.0" encoding="utf-8"?>
<!-- Generator: Adobe Illustrator 18.1.1, SVG Export Plug-In . SVG Version: 6.00 Build 0)  -->
<!DOCTYPE svg PUBLIC "-//W3C//DTD SVG 1.1//EN" "http://www.w3.org/Graphics/SVG/1.1/DTD/svg11.dtd">
<svg version="1.1" id="Layer_1" xmlns="http://www.w3.org/2000/svg" xmlns:xlink="http://www.w3.org/1999/xlink" x="0px" y="0px"
	 width="241.5px" height="241.7px" viewBox="0 0 241.5 241.7" enable-background="new 0 0 241.5 241.7" xml:space="preserve">
<g>
	<g>
		<path fill="#FFFFFF" d="M83.3,185.5c-0.7-0.4-1.5-0.8-2.3-1.2c-0.8-0.4-1.4-0.6-1.8-0.8l-5.6,9.7l7.9,4.6l4.1-7.2
			c0.6-1,0.7-1.9,0.3-2.8C85.6,187.2,84.7,186.3,83.3,185.5z M83.3,189.4l-3.1,5.4l-3.2-1.9l3.7-6.4c0.5,0.2,0.9,0.5,1.3,0.7
			c0.6,0.4,1.1,0.7,1.3,1C83.5,188.5,83.5,188.9,83.3,189.4z"/>
		<polygon fill="#FFFFFF" points="87.1,196.2 89.7,194.8 91.8,190 89.3,188.9 86.3,195.8 		"/>
		<path fill="#FFFFFF" d="M101.7,198.6c0.3-1.1,0.5-2.1,0.5-2.9c0-0.5-0.1-0.9-0.3-1.3c-0.2-0.4-0.4-0.7-0.7-1
			c-0.3-0.3-0.8-0.5-1.2-0.7s-1-0.2-1.4-0.2c-0.4,0-0.8,0.1-1.1,0.2c-0.3,0.1-0.5,0.2-0.8,0.4c-0.2,0.2-0.4,0.3-0.5,0.3
			c-0.1,0.1-0.1,0.1-0.2,0.2l-0.2-0.1l0.1-1c0-0.3,0-0.6,0-0.9l-2.5-0.8c0.1,1.3-0.1,2.4-0.4,3.4c-0.1,0.3-0.2,0.5-0.3,0.8l-2.8,6.7
			l2.5,0.8l2.9-7.1l0.1-0.2c0.2-0.2,0.5-0.5,1-0.7c0.2-0.1,0.5-0.2,0.8-0.3c0.3,0,0.6,0,0.8,0.1c0.6,0.2,0.9,0.5,1.1,0.9
			c0.1,0.2,0.1,0.4,0.2,0.6c0.1,0.5-0.1,1.2-0.4,2.2l-1.2,3.9l-2-0.6l-0.6,2l4.7,1.5L101.7,198.6z"/>
		<path fill="#FFFFFF" d="M104.1,196.1l6.1,1l0,0.1l-0.1,0c-0.2,0-0.5,0.2-0.8,0.5c-0.2,0.1-0.3,0.3-0.4,0.6
			c-0.1,0.2-0.2,0.5-0.3,0.9l-1.1,7.1l2.7,0.4l1.1-7c0.1-0.5,0.2-0.9,0.4-1.1c0.2-0.3,0.4-0.5,0.7-0.7c0.3-0.1,0.6-0.2,0.8-0.3
			l0.3-1.9l-9-1.4L104.1,196.1z"/>
		<path fill="#FFFFFF" d="M114.8,195.6l0,2.1l6.7,0.1l-1.9,4.9c-0.2,0.6-0.4,1.3-0.6,2.2c-0.2,0.8-0.3,1.5-0.3,2l0,0.3l2.7,0.1
			l0-0.3c0-1.2,0.4-2.6,1-4.3l2-5.2l0-1.6L114.8,195.6z"/>
		
			<rect x="110.3" y="204.6" transform="matrix(-1.901218e-002 0.9998 -0.9998 -1.901218e-002 323.9312 93.9218)" fill="#FFFFFF" width="11.2" height="2.5"/>
		
			<rect x="122.2" y="199.8" transform="matrix(-9.118941e-002 -0.9958 0.9958 -9.118941e-002 -60.6899 346.8681)" fill="#FFFFFF" width="11.5" height="2.7"/>
		<path fill="#FFFFFF" d="M141.8,198c-0.2-1.1-0.6-2-1-2.8c-0.3-0.4-0.5-0.7-0.9-1c-0.3-0.3-0.7-0.4-1.2-0.5c-0.5-0.1-0.9-0.1-1.4,0
			c-0.5,0.1-0.9,0.3-1.3,0.5c-0.4,0.2-0.7,0.4-0.9,0.7c-0.2,0.2-0.4,0.4-0.5,0.7c-0.1,0.3-0.2,0.4-0.3,0.5c0,0.1,0,0.2-0.1,0.2
			l-0.2,0l-0.4-0.9c-0.2-0.3-0.3-0.5-0.4-0.7l-2.5,0.5c0.7,1.1,1.1,2.1,1.3,3.2c0.1,0.3,0.1,0.5,0.1,0.8l0.8,7.3l2.6-0.5l-0.9-7.6
			l0-0.2c0.1-0.3,0.2-0.7,0.5-1.1c0.1-0.2,0.3-0.4,0.5-0.6c0.2-0.2,0.5-0.3,0.7-0.3c0.6-0.1,1,0,1.4,0.3c0.2,0.1,0.3,0.3,0.4,0.5
			c0.3,0.4,0.5,1.1,0.7,2.1l0.8,4l-2.1,0.4l0.4,2l4.8-1L141.8,198z"/>
		<path fill="#FFFFFF" d="M156.8,190.2c-0.5-1.1-1.2-1.7-2-1.9c-0.9-0.2-2.1,0-3.6,0.7c-0.7,0.3-1.5,0.7-2.3,1.1
			c-0.8,0.4-1.3,0.8-1.7,1l4.6,10.3l8.4-3.7L156.8,190.2z M153.5,198.5l-3-6.8c0.5-0.3,0.9-0.5,1.3-0.7c0.7-0.3,1.2-0.4,1.6-0.5
			c0.5,0,0.8,0.2,1,0.7l2.5,5.7L153.5,198.5z"/>
		<polygon fill="#FFFFFF" points="162.5,189.3 159.8,184.7 157.5,186.1 161.3,192.6 162.1,192.2 		"/>
		<path fill="#FFFFFF" d="M167.9,184l3.2,4.4l-4.1,3l1.2,1.7l7.4-5.4l-1.2-1.7l-1.1,0.8l-3.2-4.4c-0.4-0.5-0.8-1-1.2-1.3
			c-0.4-0.3-0.8-0.6-1.3-0.7c-0.9-0.2-2.2,0.2-3.7,1.4c-1,0.8-1.9,1.4-2.5,2l1.3,1.7l0.3-0.3c0.6-0.6,1.3-1.1,1.9-1.6
			C166.1,182.8,167.1,182.9,167.9,184z"/>
		<polygon fill="#FFFFFF" points="179.8,183.8 181.7,182 179.4,178.3 176.8,173.3 175.6,172 171.2,176.2 169.6,174.5 167.6,176.3 
			170.7,179.5 175,175.4 177.5,180.1 		"/>
		<path fill="#FFFFFF" d="M182.9,172.3c-0.1,0.1-0.1,0.2-0.2,0.2l-4.8-3.1l-1.6,2.1l9.7,6.2l3.2-4.1c1.7-2.3,1.8-4.5,0.3-6.7
			c-0.4-0.6-1-1.2-1.8-1.9l-3.7-3.4l-1.6,2.1l3.7,3.4c1,0.9,1.6,1.8,1.9,2.7c0.3,0.9,0.1,1.7-0.5,2.5l-1.8,2.3l-1.5-1
			c0.1-0.2,0.2-0.3,0.3-0.4c1.4-1.8,1.2-3.5-0.6-5l-3.1-2.8l-1.6,2l3.1,2.8c0.4,0.4,0.7,0.8,0.7,1.1
			C183.3,171.5,183.2,171.9,182.9,172.3z"/>
		<path fill="#FFFFFF" d="M194.5,165.9l4.4-8.1l-1.8-1l-0.6,1.2l-4.8-2.6c-0.6-0.3-1.1-0.5-1.6-0.7c-0.5-0.1-0.9-0.2-1.5-0.1
			c-0.9,0.2-1.9,1.1-2.8,2.8c-0.6,1.1-1.1,2.1-1.4,2.9l1.9,1l0.2-0.4c0.3-0.8,0.7-1.6,1-2.2c0.7-1.3,1.7-1.7,2.9-1l4.8,2.6l-2.5,4.5
			L194.5,165.9z"/>
		<path fill="#FFFFFF" d="M62.4,202.2c0.7-0.9,1-1.8,0.7-2.7c-0.2-0.9-1-1.8-2.3-2.8c-0.6-0.5-1.3-1-2.1-1.5c-0.8-0.5-1.3-0.8-1.7-1
			l-7,8.8l7.2,5.7L62.4,202.2z M58.1,197.2c0.5,0.3,0.9,0.6,1.2,0.9c0.6,0.4,0.9,0.8,1.1,1.2c0.2,0.4,0.2,0.8-0.2,1.2l-3.8,4.9
			l-2.9-2.3L58.1,197.2z"/>
		<polygon fill="#FFFFFF" points="65.8,206.9 68.7,202.4 66.4,201 62.3,207.3 63,207.8 		"/>
		<path fill="#FFFFFF" d="M73.6,218.4l-0.3-4.7c0.4,0.1,0.8,0.1,1.1,0.1c0.3,0,0.6-0.1,0.9-0.2c0.6-0.3,1.1-0.8,1.6-1.7l2-3.6
			l-2.4-1.3l-2,3.6c-0.2,0.4-0.4,0.6-0.6,0.8c-0.2,0.2-0.5,0.2-0.7,0.2l-0.1-2.1l-0.2-4.6l-2.7-1.5l0.3,4.7
			c-0.4-0.1-0.8-0.1-1.1-0.1c-0.3,0-0.6,0.1-0.9,0.2c-0.2,0.1-0.5,0.3-0.7,0.5c-0.2,0.2-0.4,0.4-0.5,0.6c-0.1,0.2-0.3,0.4-0.4,0.7
			l-1.9,3.6l2.4,1.3l2-3.6c0.2-0.4,0.4-0.6,0.6-0.8c0.2-0.2,0.5-0.2,0.8-0.2l0.3,6.6L73.6,218.4z"/>
		<path fill="#FFFFFF" d="M83.3,222.4l2.5,1l2.7-7c0.2-0.4,0.3-0.8,0.4-1.2c0.1-0.3,0.1-0.7,0.1-1c0-0.4,0-0.7-0.2-1
			s-0.3-0.6-0.6-0.9c-0.5-0.6-1.4-1.1-2.6-1.6c-1.7-0.7-3.4-1.2-5.2-1.6l-0.8,1.9l1.2,0.4l-2.2,5.5c-0.1,0.3-0.3,0.6-0.5,0.8
			c-0.1,0.1-0.3,0.2-0.4,0.2s-0.4,0-0.6-0.1c-0.2-0.1-0.5-0.2-0.8-0.5l-0.8,1.9c0.3,0.3,0.7,0.5,1.2,0.7c0.5,0.2,0.9,0.3,1.3,0.3
			c0.4,0,0.8,0,1.1-0.1c0.8-0.3,1.5-1,2-2.3l2.2-5.7c0.4,0.1,0.7,0.3,1,0.4c1.4,0.5,1.8,1.5,1.3,2.7L83.3,222.4z"/>
		
			<rect x="90.2" y="217.7" transform="matrix(0.9684 0.2493 -0.2493 0.9684 58.063 -15.8493)" fill="#FFFFFF" width="2.7" height="7.3"/>
		<path fill="#FFFFFF" d="M100.1,219.5c0.1-0.5,0.2-0.8,0.2-1.2c0-0.3,0.1-0.7,0-1c0-0.4-0.1-0.7-0.3-0.9c-0.2-0.3-0.4-0.5-0.7-0.8
			c-0.3-0.3-0.7-0.5-1.1-0.7c-0.5-0.2-1-0.4-1.8-0.6c-0.7-0.2-1.5-0.3-2.4-0.5s-1.5-0.2-2-0.2l-0.5,2l0.6,0.1c0.4,0.1,1,0.1,1.7,0.3
			c0.7,0.1,1.3,0.2,1.8,0.4c1.5,0.4,2,1.2,1.7,2.5l-1.9,7.3l2.6,0.7L100.1,219.5z"/>
		<path fill="#FFFFFF" d="M114.2,228.9l2.7,0.2l0.6-7.5c0-0.5,0-0.9,0-1.2c0-0.3-0.1-0.7-0.2-1c-0.1-0.3-0.2-0.6-0.4-0.9
			c-0.2-0.2-0.5-0.5-0.8-0.7c-0.6-0.4-1.6-0.6-2.9-0.7c-1.8-0.1-3.6-0.2-5.4-0.1l-0.2,2l1.3,0l-0.5,5.9c0,0.4-0.1,0.7-0.3,0.9
			c-0.1,0.1-0.2,0.2-0.4,0.3c-0.2,0.1-0.3,0.1-0.6,0.1c-0.2,0-0.5-0.1-0.9-0.2l-0.2,2.1c0.4,0.2,0.8,0.3,1.3,0.3c0.5,0,1,0,1.4-0.1
			c0.4-0.1,0.8-0.2,1-0.4c0.7-0.5,1.1-1.4,1.3-2.8l0.5-6.1c0.4,0,0.8,0,1.1,0.1c1.5,0.1,2.2,0.9,2.1,2.2L114.2,228.9z"/>
		
			<rect x="120.6" y="222.2" transform="matrix(0.9991 -4.160360e-002 4.160360e-002 0.9991 -9.3739 5.2687)" fill="#FFFFFF" width="2.5" height="11.2"/>
		<path fill="#FFFFFF" d="M124.9,226.7c-0.1,0.8-0.2,1.5-0.1,2l0,0.3l2.7-0.1l0-0.3c0-1.2,0.2-2.6,0.7-4.3l1.7-5.3l-0.1-1.6
			l-9.7,0.4l0.1,2.1l6.7-0.3l-1.6,5C125.2,225.1,125.1,225.8,124.9,226.7z"/>
		
			<rect x="132.2" y="216.8" transform="matrix(-0.9919 0.1271 -0.1271 -0.9919 294.3527 426.2085)" fill="#FFFFFF" width="2.7" height="11.5"/>
		<polygon fill="#FFFFFF" points="141.8,227 144.4,226.4 144.4,222.1 144.9,216.4 144.5,214.7 138.6,215.9 138.1,213.6 135.5,214.1 
			136.4,218.5 142.3,217.3 141.9,222.6 		"/>
		<path fill="#FFFFFF" d="M153.4,216.1l2.3,7.1l2.6-0.8l-2.3-7.1c-0.1-0.4-0.3-0.8-0.4-1.1c-0.1-0.3-0.3-0.6-0.5-0.9
			c-0.2-0.3-0.5-0.5-0.7-0.6c-0.3-0.1-0.6-0.2-1-0.3c-0.4-0.1-0.8-0.1-1.3,0c-0.5,0.1-1.1,0.2-1.8,0.4c-0.7,0.2-1.5,0.5-2.3,0.9
			c-0.8,0.3-1.4,0.6-1.8,0.9l3.4,10.7l2.6-0.8l-2.9-9c0.5-0.2,1-0.4,1.4-0.5C152.1,214.4,153,214.8,153.4,216.1z"/>
		<polygon fill="#FFFFFF" points="168.8,217.7 171.2,216.6 170.1,212.3 169.1,206.8 168.3,205.2 162.9,207.9 161.8,205.8 159.4,207 
			161.4,211 166.8,208.3 167.8,213.5 		"/>
		<path fill="#FFFFFF" d="M180.7,210.9c2.4-1.6,3.2-3.7,2.4-6.3c-0.2-0.7-0.5-1.5-1.1-2.4l-2.4-4.4l-2.2,1.4l2.4,4.4
			c0.7,1.2,1,2.2,1,3.2c0,0.9-0.4,1.7-1.3,2.2l-2.4,1.6l-1.1-1.4c0.2-0.1,0.3-0.2,0.4-0.3c1.9-1.2,2.2-2.9,1.1-4.9l-2-3.6l-2.1,1.4
			l2,3.6c0.3,0.5,0.4,0.9,0.3,1.3c-0.1,0.3-0.3,0.6-0.7,0.9c-0.1,0.1-0.2,0.1-0.2,0.1l-3.6-4.5l-2.2,1.4l7.2,9L180.7,210.9z"/>
		<path fill="#FFFFFF" d="M199,195.6l-5.7-6c-0.8-0.8-1.7-1.2-2.6-1.1c-0.9,0.1-1.9,0.7-3.1,1.9c-0.6,0.6-1.2,1.2-1.7,1.9
			c-0.6,0.7-1,1.2-1.2,1.6l7.8,8.1L199,195.6z M188.8,192.2c0.5-0.5,1-0.8,1.3-1c0.4-0.2,0.8-0.1,1.2,0.3l4.3,4.5l-2.7,2.6l-5.1-5.3
			C188.2,192.8,188.5,192.5,188.8,192.2z"/>
		<polygon fill="#FFFFFF" points="198.9,189.9 198.4,187 194.4,183.5 192.6,185.6 198.3,190.6 		"/>
		<polygon fill="#FFFFFF" points="202.4,185.7 201.7,182.8 197.6,179.6 195.9,181.7 201.9,186.4 		"/>
		<path fill="#FFFFFF" d="M208.6,185l1.6-3.3c1.1-2.5,1-4.7-0.3-6.6c-0.4-0.6-1-1.2-1.9-1.9l-3.9-3.1l-1.5,2.2l4.2,3.3
			c0.7,0.5,1.2,1.1,1.5,1.6c0.3,0.5,0.5,1.1,0.5,1.6l-3.4-1.4l-5.1-1.7l-1.5,2.3l9.3,3.1l-1.2,2.7L208.6,185z"/>
		<path fill="#FFFFFF" d="M215,174l4.2-8.2l-1.8-0.9l-0.6,1.2l-4.8-2.5c-0.6-0.3-1.1-0.5-1.6-0.6c-0.5-0.1-0.9-0.1-1.5,0
			c-0.9,0.2-1.9,1.2-2.7,2.9c-0.6,1.1-1,2.1-1.3,2.9l1.9,1l0.2-0.4c0.3-0.8,0.6-1.6,1-2.3c0.7-1.3,1.6-1.7,2.9-1.1l4.8,2.5l-2.3,4.6
			L215,174z"/>
		<path fill="#FFFFFF" d="M219.5,161.7c0.6-0.2,1.1-0.6,1.6-1c0.4-0.4,0.8-1,1-1.6c0.6-1.5,0.5-2.8-0.1-4c-0.6-1.2-1.9-2.1-3.6-2.7
			c-2.7-1-4.6-1.1-5.6-0.3c-0.5,0.4-1,1-1.3,1.9c-0.2,0.5-0.3,0.9-0.3,1.4l1.9,0.7l0.2-0.5c0.1-0.3,0.2-0.5,0.3-0.7
			c0.3-0.4,0.7-0.6,1.2-0.6c0.6,0,1.5,0.3,2.7,0.7c1.2,0.5,2.1,1,2.5,1.5c0.4,0.5,0.5,1.1,0.3,1.8c-0.3,0.7-0.7,1-1.4,1.1
			c-0.7,0.1-1.6-0.1-2.8-0.5l-5.3-2l-1,2.5l5.3,2c0.9,0.3,1.7,0.5,2.5,0.6C218.2,162,218.9,161.9,219.5,161.7z"/>
	</g>
	<g>
		<path fill="#FFFFFF" d="M40.4,90.1l-9.4-2.9c-1.3-0.4-2.4-0.3-3.3,0.3c-0.9,0.6-1.6,1.9-2.2,3.7c-0.3,0.9-0.5,1.9-0.8,2.9
			c-0.2,1-0.4,1.8-0.4,2.3l12.8,4L40.4,90.1z M27.8,92.3c0.3-0.8,0.5-1.4,0.8-1.8c0.3-0.4,0.8-0.5,1.4-0.3l7,2.2l-1.3,4.2L27.4,94
			C27.5,93.3,27.7,92.8,27.8,92.3z"/>
		<polygon fill="#FFFFFF" points="29.2,82 37.4,85.7 37.9,84.7 36.2,81.6 30.5,79.1 		"/>
		<path fill="#FFFFFF" d="M40.6,67.5c-0.4-0.2-0.8-0.3-1.2-0.4c-0.4-0.1-0.8-0.1-1.2,0c-0.4,0.1-0.7,0.3-1.1,0.5
			c-0.4,0.2-0.8,0.6-1.1,1.1c-0.4,0.5-0.8,1.1-1.2,1.8c-0.4,0.8-0.9,1.6-1.3,2.6c-0.5,1-0.8,1.7-0.9,2.2L44,82l1.6-2.8l-9.7-5.7
			c0.3-0.6,0.6-1.1,0.8-1.5c0.9-1.5,2.1-1.9,3.5-1.1l7.7,4.5l1.6-2.8l-7.7-4.5C41.4,67.9,40.9,67.6,40.6,67.5z"/>
		<path fill="#FFFFFF" d="M43.1,60.1c-0.3-0.2-0.7-0.3-0.9-0.4l-2,2.4c1.4,0.5,2.6,1.2,3.6,2c0.2,0.2,0.5,0.4,0.7,0.6l6.2,6.1l2-2.4
			L46.2,62l-0.1-0.2c-0.2-0.3-0.3-0.8-0.4-1.4c0-0.3,0-0.6,0.1-0.9s0.2-0.6,0.4-0.9c0.5-0.5,0.9-0.8,1.5-0.8c0.3,0,0.5,0,0.8,0.1
			c0.5,0.2,1.3,0.6,2.3,1.4l3.8,3.1l-1.6,2l1.9,1.6l3.7-4.5l-5.9-4.9c-1.1-0.9-2.1-1.5-3-1.8c-0.5-0.2-1.1-0.3-1.5-0.3
			c-0.5,0-1,0.1-1.5,0.3c-0.5,0.2-0.9,0.6-1.3,1.1c-0.4,0.5-0.7,0.9-0.9,1.4c-0.2,0.5-0.3,0.9-0.3,1.2c0,0.3,0,0.7,0,1
			s0.1,0.6,0.1,0.7c0,0.1,0.1,0.2,0.1,0.3l-0.1,0.2L43.1,60.1z"/>
		<path fill="#FFFFFF" d="M53.4,47.6l-2.7,2.4l8.6,2.5l4.7,0.8l0,0l-1.9,1.5l-4,3.5l1.6,1.9l8.8-7.7l-1.2-1.4L63,50.2
			c0.1-1,0.1-1.9-0.1-2.6c-0.1-0.4-0.2-0.7-0.4-1c-0.2-0.6-0.7-1.4-1.4-2.3l-1.5-2l-2.4,2.1l1.8,2.4c0.8,1.1,1.3,2.1,1.4,3
			L53.4,47.6z"/>
		<path fill="#FFFFFF" d="M78.1,36.2l4.2,7.9l2.9-1.5l-4.2-7.8c-0.3-0.5-0.5-0.9-0.8-1.2c-0.2-0.3-0.5-0.6-0.8-0.9
			c-0.3-0.3-0.6-0.5-1-0.6c-0.4-0.1-0.8-0.2-1.2-0.1c-0.9,0-2,0.4-3.4,1.2c-1.9,1-3.7,2.2-5.5,3.5l1.2,2.1l1.3-0.9l3.4,6.2
			c0.2,0.4,0.3,0.8,0.4,1.1c0,0.2,0,0.4-0.1,0.5c-0.1,0.2-0.3,0.3-0.5,0.4c-0.2,0.1-0.6,0.2-1.1,0.4l1.2,2.2c0.5-0.1,1-0.2,1.5-0.5
			c0.5-0.3,1-0.6,1.3-1c0.4-0.4,0.6-0.7,0.8-1.1c0.4-1,0.2-2.2-0.6-3.6L73.4,36c0.4-0.2,0.8-0.5,1.1-0.6
			C76.1,34.5,77.3,34.8,78.1,36.2z"/>
		<path fill="#FFFFFF" d="M86.3,39.5l0.9,2.3l5.8-2.2l-0.1-0.5c0-0.4-0.1-0.9-0.3-1.5c-0.2-0.7-0.3-1.3-0.6-1.9l-1.9-5.2
			c-0.4-1-0.8-1.7-1.3-2.2c-0.3-0.3-0.6-0.5-1-0.6c-0.4-0.1-0.8-0.2-1.3-0.1c-0.5,0-1.1,0.2-1.7,0.4c-0.6,0.2-1.2,0.5-1.7,0.9
			l0.9,2.4c0.5-0.3,0.9-0.5,1.4-0.7c0.2-0.1,0.5-0.1,0.7-0.1c0.4,0.1,0.8,0.5,1.1,1.2l1.6,4.4c0.4,1,0.6,1.8,0.7,2.3L86.3,39.5z"/>
		<path fill="#FFFFFF" d="M95.5,38.6l3.1-0.7l-1.2-9l0.1-0.3c0.1-0.4,0.3-0.8,0.6-1.3c0.2-0.3,0.4-0.5,0.6-0.7
			c0.3-0.2,0.6-0.4,0.9-0.4c0.7-0.2,1.2-0.1,1.6,0.3c0.2,0.2,0.4,0.3,0.5,0.5c0.3,0.5,0.7,1.3,0.9,2.5l1.1,4.8l-2.5,0.6l0.5,2.4
			l5.7-1.3l-1.7-7.5c-0.3-1.3-0.7-2.4-1.3-3.3c-0.3-0.5-0.7-0.9-1-1.2c-0.4-0.3-0.8-0.5-1.4-0.6c-0.5-0.1-1.1-0.1-1.7,0
			c-0.6,0.1-1.1,0.3-1.6,0.6c-0.4,0.3-0.8,0.5-1,0.8c-0.2,0.3-0.4,0.5-0.6,0.9c-0.2,0.3-0.3,0.5-0.3,0.6c0,0.1-0.1,0.2-0.1,0.3
			l-0.2,0l-0.5-1c-0.2-0.3-0.4-0.6-0.5-0.9l-3,0.7c0.8,1.3,1.4,2.5,1.6,3.8c0.1,0.3,0.1,0.6,0.2,0.9L95.5,38.6z"/>
		<path fill="#FFFFFF" d="M111.8,24.4c-0.2,0.1-0.5,0.4-0.9,0.9c-0.4,0.4-0.7,1.1-0.9,2.1c-0.3,1-0.3,2.2-0.2,3.7l0.5,4.6l3.2-0.3
			l-0.5-4.6c-0.1-0.6-0.1-1.1-0.1-1.4c0-0.3,0-0.7,0-1.3c0-0.5,0.1-1,0.2-1.5c0.1-0.4,0.3-0.9,0.5-1.4c0.2-0.5,0.5-0.9,0.8-1.2
			l-0.2-2.5l-5.7,0.6l0.2,2.5l3.3-0.3l0,0.1L111.8,24.4z"/>
		<path fill="#FFFFFF" d="M124.9,35.1l3.2,0.1l0.2-8.9c0-0.6,0-1,0-1.4c0-0.4-0.1-0.8-0.3-1.2c-0.1-0.4-0.3-0.7-0.6-1
			c-0.3-0.3-0.6-0.5-1-0.7s-0.9-0.4-1.5-0.5c-0.6-0.1-1.3-0.2-2.2-0.2c-0.9,0-1.8,0-2.9,0.1c-1.1,0.1-1.9,0.2-2.4,0.3l-0.1,2.4
			l0.8-0.1c0.5-0.1,1.2-0.1,2-0.2c0.8,0,1.6-0.1,2.2-0.1c1.8,0,2.7,0.9,2.6,2.5L124.9,35.1z"/>
		
			<rect x="117.3" y="26.3" transform="matrix(-0.9998 -2.213670e-002 2.213670e-002 -0.9998 237.1102 63.8477)" fill="#FFFFFF" width="3.2" height="8.7"/>
		<path fill="#FFFFFF" d="M139.9,42.5l3.1,0.7l2.9-12.5c0.3-1.3,0.3-2.5,0.1-3.6c-0.1-0.6-0.3-1.1-0.6-1.6c-0.3-0.5-0.7-0.9-1.3-1.3
			c-0.6-0.4-1.3-0.7-2.1-0.9c-1.4-0.3-2.7-0.5-3.9-0.7l-0.6,2.4c1.5,0.2,2.6,0.4,3.5,0.6c0.5,0.1,0.9,0.3,1.2,0.6
			c0.8,0.7,1,1.8,0.6,3.4L139.9,42.5z"/>
		<polygon fill="#FFFFFF" points="148.4,34.8 149.4,35.1 152.3,33.2 154.3,27.3 151.3,26.2 		"/>
		<polygon fill="#FFFFFF" points="155.6,42.5 158.5,43.8 161.6,39.7 166,34.5 166.9,32.6 160.3,29.6 161.5,27.1 158.6,25.7 
			156.4,30.5 162.9,33.5 158.8,38.3 		"/>
		
			<rect x="164.9" y="38.8" transform="matrix(-0.8393 -0.5437 0.5437 -0.8393 282.7759 169.8306)" fill="#FFFFFF" width="3.2" height="8.7"/>
		<path fill="#FFFFFF" d="M176.5,38.5c-0.4-0.4-1-0.8-1.8-1.3c-0.7-0.5-1.6-1-2.5-1.5c-0.9-0.5-1.7-0.8-2.2-1l-1.3,2l0.7,0.3
			c0.5,0.2,1.1,0.5,1.8,0.9c0.7,0.4,1.4,0.8,1.9,1.1c1.5,1,1.8,2.1,0.9,3.5l-4.9,7.5l2.7,1.8l4.8-7.5c0.3-0.5,0.5-0.9,0.7-1.3
			c0.2-0.4,0.3-0.8,0.4-1.2s0.1-0.8,0-1.2c-0.1-0.4-0.2-0.7-0.4-1.1C177.3,39.3,176.9,38.9,176.5,38.5z"/>
		<path fill="#FFFFFF" d="M176.9,52.1c-0.2,0.1-0.4,0.1-0.6,0c-0.2,0-0.4-0.2-0.6-0.3c-0.2-0.2-0.4-0.5-0.7-0.9l-1.7,1.8
			c0.2,0.5,0.5,0.9,1,1.3c0.4,0.4,0.9,0.7,1.3,0.9c0.5,0.2,0.9,0.3,1.3,0.4c1,0.1,2.1-0.5,3.2-1.7l4.9-5.4c0.4,0.3,0.7,0.6,1,0.8
			c1.3,1.2,1.4,2.4,0.3,3.6l-6,6.6l2.4,2.2l6-6.6c0.4-0.4,0.7-0.8,0.9-1.1c0.2-0.3,0.4-0.7,0.6-1.1c0.2-0.4,0.2-0.8,0.2-1.1
			c0-0.4-0.1-0.8-0.3-1.2c-0.3-0.8-1.1-1.8-2.2-2.8c-1.6-1.4-3.3-2.8-5.1-4l-1.6,1.8l1.2,0.9l-4.8,5.2
			C177.6,51.8,177.3,52,176.9,52.1z"/>
	</g>
</g>
<g>
	<path fill="#FFFFFF" d="M63,96.7l8,29.7l5-1.3l-5.3-19.8c-0.4-1.6-1.1-3.6-1.8-5.2l0.2-0.1l12.4,23.6l6.1-1.6l-1.1-26.6l0.2,0
		c0.3,1.7,0.6,3.5,1.1,5.1l5.4,20l5.4-1.5l-8-29.7l-8.8,2.4l1.2,24.8l-0.2,0L71.5,94.5L63,96.7z"/>
	<polygon fill="#FFFFFF" points="66.8,127.6 65.6,123 57.6,125.1 55.4,116.7 62.5,114.8 61.3,110.2 54.2,112.1 52.3,105 60.2,102.9 
		58.9,97.9 45.1,101.6 53,131.3 	"/>
	<path fill="#FFFFFF" d="M103.4,85.9L95.7,88l8,29.7l9.1-2.4c2.5-0.7,4.3-1.9,5.4-3.8c1-1.9,1.2-4.2,0.5-6.9
		c-0.5-1.9-1.2-3.4-2.3-4.3c-1.1-1-2.4-1.4-4.2-1.4l-0.1-0.2c1.2-0.6,2-1.6,2.4-2.9c0.4-1.4,0.4-2.9-0.1-4.6
		c-0.7-2.6-1.9-4.4-3.7-5.2C108.9,85.1,106.5,85.1,103.4,85.9z M108.9,93.3c0.3,1.2,0.4,2.3,0,3c-0.3,0.8-1,1.3-2.2,1.6l-2.4,0.6
		l-1.9-7.1l2.2-0.6c1.2-0.3,2.1-0.4,2.8,0C108.1,91.4,108.6,92.1,108.9,93.3z M112.8,109.1c-0.4,0.9-1.1,1.5-2.3,1.8l-2.7,0.7
		l-2.2-8.4l2.6-0.7c2.3-0.6,3.9,0.4,4.6,3.1C113.2,107.1,113.2,108.3,112.8,109.1z"/>
	<path fill="#FFFFFF" d="M127.4,99.2l2-0.5l7.7,10l5.9-1.6l-9.2-11.5c2.1-2.2,2.7-5.1,1.7-8.9c-0.8-3-2.1-5-4-6.1
		c-1.9-1.1-4.3-1.2-7.4-0.4l-7.2,1.9l8,29.7l5.4-1.5L127.4,99.2z M130,92c-0.4,0.9-1.2,1.5-2.5,1.8l-1.5,0.4l-2.2-8.4l1.5-0.4
		c1.3-0.3,2.3-0.4,3,0.1c0.8,0.5,1.4,1.4,1.8,2.9C130.4,90,130.4,91.1,130,92z"/>
	<polygon fill="#FFFFFF" points="148.2,86.6 141.1,75.8 135.2,77.4 147.4,93.6 150.5,105.1 155.9,103.7 152.8,91.9 154.8,72.1 
		149,73.7 	"/>
	<path fill="#FFFFFF" d="M159.7,74.6c-1.1,3.1-1.1,7.2,0.3,12.1c1.3,5,3.3,8.6,5.8,10.7c2.6,2.2,5.6,2.8,9,1.8
		c3.4-0.9,5.7-3,6.9-6.1c1.1-3.2,1-7.2-0.3-12.1s-3.3-8.5-5.8-10.6c-2.5-2.2-5.5-2.8-9-1.8C163.1,69.5,160.8,71.5,159.7,74.6z
		 M173.5,94.3c-1.7,0.4-3.2-0.1-4.5-1.7c-1.3-1.6-2.5-4-3.4-7.4c-0.9-3.4-1.2-6.1-0.8-8.1s1.4-3.2,3.1-3.7c3.3-0.9,5.9,2.2,7.8,9.1
		C177.6,89.5,176.8,93.5,173.5,94.3z"/>
	<path fill="#FFFFFF" d="M118.5,131.8c-0.8-3-2.1-5-4-6.1c-1.9-1.1-4.3-1.2-7.4-0.4l-7.2,1.9l8,29.7l5.4-1.5l-3-11.3l2-0.5l7.7,10
		l5.9-1.6l-9.2-11.5C118.9,138.4,119.5,135.5,118.5,131.8z M112.9,136.9c-0.4,0.9-1.2,1.5-2.5,1.8l-1.5,0.4l-2.2-8.4l1.4-0.4
		c1.3-0.3,2.3-0.4,3,0.1c0.8,0.5,1.4,1.4,1.8,2.9C113.3,134.9,113.3,136,112.9,136.9z"/>
	
		<rect x="125.5" y="120.1" transform="matrix(-0.9659 0.2588 -0.2588 -0.9659 287.3899 233.1686)" fill="#FFFFFF" width="5.6" height="30.7"/>
	<path fill="#FFFFFF" d="M40.8,157.6c-0.5-1.9-1.1-3.5-1.8-5.1l0.3-0.1l14.9,18.9l6.8-1.8l-8-29.7l-5,1.3l4.4,16.3
		c0.5,2,1,3.8,1.6,4.9l-0.2,0.1l-14.9-18.9l-6.8,1.8l8,29.7l5-1.3L40.8,157.6z"/>
	
		<rect x="156.5" y="111.9" transform="matrix(-0.9659 0.2588 -0.2588 -0.9659 345.6943 209.0181)" fill="#FFFFFF" width="5.2" height="30.7"/>
	<path fill="#FFFFFF" d="M209.3,115.4c0.5,2,0.9,3.8,1.5,5l-0.2,0.1l-14.9-18.9l-6.6,1.8l8,29.7l5-1.3l-4.3-16.1
		c-0.5-1.9-1.2-3.5-2-5.1l0.3-0.1l14.9,18.9l7-1.9l-8-29.7l-5,1.3L209.3,115.4z"/>
	<path fill="#FFFFFF" d="M81.7,161.5c1.1-2.3,1.3-5.3,0.4-8.8l-5.2-19.4l-5.9,1.6l5.3,19.8c0.5,1.8,0.6,3.2,0.2,4.4
		c-0.4,1.1-1,1.8-2.2,2.1c-2.5,0.7-4.1-0.9-5.1-4.7l-5.3-19.7l-5.9,1.6l5.2,19.3c1,3.6,2.5,6.2,4.6,7.6c2.1,1.4,4.6,1.7,7.6,0.9
		C78.5,165.4,80.6,163.9,81.7,161.5z"/>
	<polygon fill="#FFFFFF" points="99.1,159.3 92.5,134.6 97.9,133.1 96.6,128.1 79.8,132.6 81.2,137.6 87,136 93.6,160.7 	"/>
	<path fill="#FFFFFF" d="M188.7,131.6c1.1-3.2,1-7.2-0.3-12.1c-1.3-4.9-3.3-8.5-5.8-10.6c-2.5-2.2-5.5-2.8-9-1.8
		c-3.5,0.9-5.8,3-6.9,6.1c-1.1,3.1-1.1,7.2,0.3,12.1c1.3,5,3.3,8.6,5.8,10.7c2.6,2.2,5.6,2.8,9,1.8
		C185.3,136.8,187.6,134.8,188.7,131.6z M180.5,132.8c-1.7,0.4-3.2-0.1-4.5-1.7c-1.3-1.6-2.5-4-3.4-7.4c-0.9-3.4-1.2-6.1-0.8-8.1
		s1.4-3.2,3.1-3.7c3.3-0.9,5.9,2.2,7.8,9.1C184.6,128,183.9,131.9,180.5,132.8z"/>
	<polygon fill="#FFFFFF" points="150.5,145.5 143.9,120.8 149.8,119.2 148.4,114.2 131.3,118.8 132.6,123.8 138.5,122.3 
		145.1,146.9 	"/>
</g>
<g>
	<g>
		<path fill="#76CC1E" d="M181.1,16.2C154.3,0.8,121.6-4.5,89.4,4.1c-32.2,8.6-57.9,29.6-73.3,56.4C6.5,77.1,0.8,95.9,0,115.9
			l6.6-1.8c1-18.2,6.3-35.2,15.1-50.4c14.6-25.3,38.9-45.1,69.4-53.3c30.5-8.2,61.4-3.1,86.8,11.5c15.2,8.8,28.3,20.8,38.3,36.1
			l6.6-1.8C212.1,39.3,197.8,25.9,181.1,16.2z"/>
		<path fill="#76CC1E" d="M234.9,127.8c-1.1,17.8-6.4,35-15.2,50.2c-14.6,25.3-38.9,45-69.4,53.2c-30.5,8.2-61.4,3.3-86.7-11.4
			c-15.2-8.8-28.4-21.1-38.2-35.9l-6.6,1.8c10.5,16.5,24.9,30.1,41.6,39.8c26.8,15.5,59.4,20.7,91.7,12
			c32.2-8.6,57.9-29.5,73.4-56.2c9.6-16.7,15.2-35.7,16.1-55.3L234.9,127.8z"/>
	</g>
	<g>
		<path fill="#76CC1E" d="M62,93.4l2.8-0.7c0.6-1,1.1-2.2,1.7-3.2c8-13.9,21.3-24.7,38-29.1c16.7-4.5,33.6-1.8,47.5,6.2
			c1.1,0.6,2.1,1.3,3.1,1.9l2.8-0.7c-15.2-10.7-34.7-14.7-53.9-9.5C84.7,63.4,69.8,76.6,62,93.4z"/>
		<path fill="#76CC1E" d="M137.4,183.2c22.2-5.9,38.6-22.6,45-43.1l-2.5,0.7c-1.3,3.9-3,7.7-5.1,11.3c-8,13.9-21.3,24.7-38,29.2
			c-16.7,4.5-33.6,1.7-47.5-6.3c-3.6-2.1-6.9-4.5-10-7.2l-2.5,0.7C92.7,182.9,115.2,189.2,137.4,183.2z"/>
	</g>
</g>
</svg>
