<?xml version="1.0" encoding="utf-8"?>
<!-- Generator: Adobe Illustrator 18.1.1, SVG Export Plug-In . SVG Version: 6.00 Build 0)  -->
<!DOCTYPE svg PUBLIC "-//W3C//DTD SVG 1.1//EN" "http://www.w3.org/Graphics/SVG/1.1/DTD/svg11.dtd">
<svg version="1.1" id="Layer_1" xmlns="http://www.w3.org/2000/svg" xmlns:xlink="http://www.w3.org/1999/xlink" x="0px" y="0px"
	 width="241px" height="241.2px" viewBox="-87.3 160.5 241 241.2" enable-background="new -87.3 160.5 241 241.2"
	 xml:space="preserve">
<g>
	<path fill="#FFFFFF" d="M-4.1,345.7c-0.7-0.4-1.4-0.8-2.3-1.2c-0.8-0.4-1.4-0.6-1.8-0.8l-5.6,9.7l7.9,4.6l4.1-7.1
		c0.6-1,0.7-1.9,0.3-2.8C-1.8,347.4-2.7,346.6-4.1,345.7z M-4.1,349.6l-3.1,5.4l-3.2-1.9l3.7-6.4c0.5,0.2,0.9,0.5,1.3,0.7
		c0.6,0.4,1.1,0.7,1.3,1C-3.9,348.7-3.9,349.1-4.1,349.6z"/>
	<polygon fill="#FFFFFF" points="-0.3,356.4 2.3,355 4.4,350.2 1.9,349.1 -1.1,356 	"/>
	<path fill="#FFFFFF" d="M14.3,358.8c0.3-1.1,0.5-2.1,0.5-2.9c0-0.5-0.1-0.9-0.3-1.3c-0.2-0.4-0.4-0.7-0.7-1
		c-0.3-0.3-0.8-0.5-1.2-0.7c-0.5-0.2-0.9-0.2-1.4-0.2c-0.4,0-0.8,0.1-1.1,0.2c-0.3,0.1-0.5,0.2-0.8,0.4c-0.2,0.2-0.4,0.3-0.5,0.3
		c-0.1,0.1-0.1,0.1-0.2,0.2l-0.2-0.1l0.1-1c0-0.3,0-0.6,0-0.8L6,351c0.1,1.3-0.1,2.4-0.4,3.4c-0.1,0.3-0.2,0.5-0.3,0.8l-2.8,6.7
		l2.5,0.8l2.9-7.1l0.1-0.2c0.2-0.2,0.5-0.5,1-0.7c0.2-0.1,0.5-0.2,0.8-0.3c0.3,0,0.6,0,0.8,0.1c0.6,0.2,0.9,0.5,1.1,0.9
		c0.1,0.2,0.1,0.4,0.2,0.6c0.1,0.5-0.1,1.2-0.4,2.2l-1.2,3.9l-2-0.6l-0.6,2l4.7,1.5L14.3,358.8z"/>
	<path fill="#FFFFFF" d="M16.7,356.3l6.1,1l0,0.1l-0.1,0c-0.2,0-0.5,0.2-0.8,0.5c-0.2,0.1-0.3,0.3-0.4,0.6c-0.1,0.2-0.2,0.5-0.3,0.9
		l-1.1,7.1l2.7,0.4l1.1-7c0.1-0.5,0.2-0.9,0.4-1.1c0.2-0.3,0.4-0.5,0.7-0.7c0.3-0.1,0.6-0.2,0.8-0.3l0.3-1.9l-9-1.4L16.7,356.3z"/>
	
		<rect x="22.8" y="364.8" transform="matrix(-1.901218e-002 0.9998 -0.9998 -1.901218e-002 394.9572 344.5933)" fill="#FFFFFF" width="11.2" height="2.5"/>
	<path fill="#FFFFFF" d="M27.4,355.8l0,2.1L34,358l-1.9,4.9c-0.2,0.6-0.4,1.3-0.6,2.2c-0.2,0.8-0.3,1.5-0.3,2l0,0.3l2.7,0.1l0-0.3
		c0-1.2,0.4-2.6,1-4.3l2-5.2l0-1.6L27.4,355.8z"/>
	
		<rect x="34.7" y="360" transform="matrix(-9.118941e-002 -0.9958 0.9958 -9.118941e-002 -315.6768 434.5429)" fill="#FFFFFF" width="11.4" height="2.7"/>
	<path fill="#FFFFFF" d="M54.3,358.2c-0.2-1.1-0.6-2-1-2.8c-0.3-0.4-0.5-0.7-0.9-1c-0.3-0.3-0.7-0.4-1.2-0.5c-0.5-0.1-0.9-0.1-1.4,0
		c-0.5,0.1-0.9,0.3-1.3,0.5c-0.4,0.2-0.7,0.4-0.9,0.6c-0.2,0.2-0.4,0.4-0.5,0.7c-0.1,0.3-0.2,0.4-0.3,0.5c0,0.1,0,0.2-0.1,0.2
		l-0.2,0l-0.4-0.9c-0.1-0.3-0.3-0.5-0.4-0.7l-2.5,0.5c0.7,1.1,1.1,2.1,1.3,3.2c0.1,0.3,0.1,0.5,0.1,0.8l0.8,7.2l2.6-0.5l-0.9-7.6
		l0-0.2c0.1-0.3,0.2-0.7,0.5-1.1c0.1-0.2,0.3-0.4,0.5-0.6c0.2-0.2,0.5-0.3,0.7-0.3c0.6-0.1,1,0,1.4,0.3c0.2,0.1,0.3,0.3,0.4,0.5
		c0.3,0.4,0.5,1.1,0.7,2.1l0.8,4l-2.1,0.4l0.4,2l4.8-1L54.3,358.2z"/>
	<path fill="#FFFFFF" d="M69.3,350.4c-0.5-1.1-1.2-1.7-2-1.9c-0.9-0.2-2.1,0-3.6,0.7c-0.7,0.3-1.5,0.7-2.3,1.1
		c-0.8,0.4-1.3,0.8-1.7,1l4.6,10.3l8.3-3.7L69.3,350.4z M65.9,358.7l-3-6.8c0.5-0.3,0.9-0.5,1.3-0.7c0.7-0.3,1.2-0.4,1.6-0.5
		c0.5,0,0.8,0.2,1,0.7l2.5,5.6L65.9,358.7z"/>
	<polygon fill="#FFFFFF" points="75,349.5 72.3,344.9 69.9,346.3 73.8,352.8 74.6,352.4 	"/>
	<path fill="#FFFFFF" d="M80.3,344.2l3.2,4.4l-4.1,3l1.2,1.7l7.4-5.4l-1.2-1.7l-1.1,0.8l-3.2-4.4c-0.4-0.5-0.8-1-1.1-1.3
		c-0.4-0.3-0.8-0.6-1.3-0.7c-0.9-0.2-2.2,0.2-3.7,1.4c-1,0.8-1.9,1.4-2.5,2l1.3,1.7l0.3-0.3c0.6-0.6,1.3-1.1,1.9-1.6
		C78.5,343,79.5,343.1,80.3,344.2z"/>
	<polygon fill="#FFFFFF" points="92.2,344.1 94.1,342.2 91.8,338.5 89.2,333.5 88,332.2 83.6,336.4 82,334.7 80,336.6 83.1,339.8 
		87.4,335.6 89.9,340.3 	"/>
	<path fill="#FFFFFF" d="M95.3,332.5c-0.1,0.1-0.1,0.2-0.2,0.2l-4.8-3.1l-1.6,2.1l9.7,6.2l3.2-4.1c1.7-2.3,1.8-4.5,0.3-6.7
		c-0.4-0.6-1-1.2-1.8-1.9l-3.7-3.4l-1.6,2.1l3.7,3.4c1,0.9,1.6,1.8,1.9,2.7c0.3,0.9,0.1,1.7-0.5,2.5l-1.8,2.3l-1.5-1
		c0.1-0.2,0.2-0.3,0.3-0.4c1.4-1.8,1.2-3.4-0.5-5l-3-2.8l-1.6,2l3.1,2.8c0.4,0.4,0.7,0.8,0.7,1.1C95.7,331.8,95.6,332.1,95.3,332.5z
		"/>
	<path fill="#FFFFFF" d="M106.9,326.1l4.4-8l-1.8-1l-0.6,1.2l-4.7-2.6c-0.6-0.3-1.1-0.5-1.6-0.7c-0.5-0.1-0.9-0.2-1.4-0.1
		c-0.9,0.2-1.9,1.1-2.8,2.8c-0.6,1.1-1.1,2.1-1.4,2.9l1.9,1l0.2-0.4c0.3-0.8,0.7-1.6,1-2.2c0.7-1.3,1.7-1.7,2.9-1l4.8,2.6l-2.5,4.5
		L106.9,326.1z"/>
	<path fill="#FFFFFF" d="M-24.9,362.4c0.7-0.9,1-1.8,0.7-2.7c-0.2-0.9-1-1.8-2.3-2.8c-0.6-0.5-1.3-1-2.1-1.5c-0.7-0.5-1.3-0.8-1.7-1
		l-6.9,8.8l7.2,5.6L-24.9,362.4z M-29.2,357.4c0.5,0.3,0.9,0.6,1.2,0.9c0.6,0.4,0.9,0.8,1.1,1.2c0.2,0.4,0.2,0.8-0.2,1.2l-3.8,4.9
		l-2.9-2.3L-29.2,357.4z"/>
	<polygon fill="#FFFFFF" points="-21.6,367 -18.7,362.6 -20.9,361.1 -25.1,367.5 -24.3,368 	"/>
	<path fill="#FFFFFF" d="M-13.8,378.5l-0.3-4.7c0.4,0.1,0.8,0.1,1.1,0.1s0.6-0.1,0.9-0.2c0.6-0.3,1.1-0.8,1.6-1.7l1.9-3.6l-2.4-1.3
		l-2,3.6c-0.2,0.4-0.4,0.6-0.6,0.8c-0.2,0.2-0.5,0.2-0.7,0.2l-0.1-2.1l-0.2-4.5l-2.7-1.5l0.3,4.7c-0.4-0.1-0.8-0.1-1.1-0.1
		c-0.3,0-0.6,0.1-0.9,0.2c-0.2,0.1-0.5,0.3-0.7,0.5c-0.2,0.2-0.4,0.4-0.5,0.6s-0.3,0.4-0.4,0.7l-1.9,3.6l2.4,1.3l2-3.6
		c0.2-0.4,0.4-0.6,0.6-0.8c0.2-0.2,0.5-0.2,0.8-0.2l0.3,6.6L-13.8,378.5z"/>
	<path fill="#FFFFFF" d="M-4.1,382.5l2.5,1l2.7-7c0.2-0.4,0.3-0.8,0.4-1.1c0.1-0.3,0.1-0.7,0.1-1c0-0.4,0-0.7-0.2-1
		c-0.1-0.3-0.3-0.6-0.6-0.9c-0.5-0.6-1.4-1.1-2.6-1.6c-1.7-0.7-3.4-1.2-5.2-1.6l-0.7,1.9l1.2,0.4l-2.2,5.5c-0.1,0.3-0.3,0.6-0.5,0.8
		c-0.1,0.1-0.3,0.2-0.4,0.2c-0.2,0-0.4,0-0.6-0.1c-0.2-0.1-0.5-0.2-0.8-0.5l-0.8,1.9c0.3,0.3,0.7,0.5,1.1,0.7
		c0.5,0.2,0.9,0.3,1.3,0.3c0.4,0,0.8,0,1.1-0.1c0.8-0.3,1.5-1,2-2.3l2.2-5.7c0.4,0.1,0.7,0.2,1,0.4c1.4,0.5,1.8,1.5,1.3,2.7
		L-4.1,382.5z"/>
	<path fill="#FFFFFF" d="M12.7,379.7c0.1-0.5,0.2-0.8,0.2-1.2c0-0.3,0.1-0.7,0-1c0-0.4-0.1-0.7-0.3-0.9c-0.2-0.3-0.4-0.5-0.7-0.8
		c-0.3-0.2-0.7-0.5-1.1-0.7s-1-0.4-1.8-0.6s-1.5-0.3-2.4-0.5c-0.9-0.1-1.5-0.2-2-0.2l-0.5,2l0.6,0.1c0.4,0.1,1,0.1,1.7,0.3
		c0.7,0.1,1.3,0.2,1.8,0.4c1.5,0.4,2,1.2,1.7,2.5l-1.9,7.2l2.6,0.7L12.7,379.7z"/>
	
		<rect x="2.8" y="377.8" transform="matrix(0.9684 0.2493 -0.2493 0.9684 95.2402 11.0007)" fill="#FFFFFF" width="2.7" height="7.3"/>
	<path fill="#FFFFFF" d="M26.7,389l2.7,0.2l0.6-7.4c0-0.5,0-0.9,0-1.2c0-0.3-0.1-0.7-0.2-1c-0.1-0.3-0.2-0.6-0.4-0.9
		c-0.2-0.2-0.5-0.5-0.8-0.7c-0.6-0.4-1.6-0.6-2.9-0.7c-1.8-0.1-3.6-0.2-5.4-0.1l-0.2,2l1.3,0l-0.5,5.9c0,0.4-0.1,0.7-0.3,0.9
		c-0.1,0.1-0.2,0.2-0.3,0.3c-0.2,0.1-0.3,0.1-0.6,0.1c-0.2,0-0.5-0.1-0.9-0.2l-0.2,2c0.4,0.2,0.8,0.3,1.3,0.3c0.5,0,0.9,0,1.4-0.1
		c0.4-0.1,0.8-0.2,1-0.4c0.7-0.5,1.1-1.4,1.2-2.8l0.5-6.1c0.4,0,0.8,0,1.1,0.1c1.5,0.1,2.2,0.9,2.1,2.2L26.7,389z"/>
	<path fill="#FFFFFF" d="M37.5,386.8c-0.1,0.8-0.2,1.5-0.1,2l0,0.3L40,389l0-0.3c0-1.2,0.2-2.6,0.7-4.3l1.7-5.3l-0.1-1.6l-9.6,0.4
		l0.1,2.1l6.7-0.3l-1.6,5C37.7,385.2,37.6,386,37.5,386.8z"/>
	
		<rect x="33.2" y="382.4" transform="matrix(0.9991 -4.162196e-002 4.162196e-002 0.9991 -16.1189 1.769)" fill="#FFFFFF" width="2.5" height="11.2"/>
	
		<rect x="44.7" y="376.9" transform="matrix(-0.9919 0.1271 -0.1271 -0.9919 140.415 756.3228)" fill="#FFFFFF" width="2.7" height="11.4"/>
	<polygon fill="#FFFFFF" points="54.3,387.1 56.9,386.6 56.9,382.2 57.3,376.6 57,374.9 51.1,376.1 50.6,373.8 48,374.3 48.9,378.6 
		54.7,377.4 54.4,382.7 	"/>
	<path fill="#FFFFFF" d="M65.9,376.3l2.3,7.1l2.6-0.8l-2.3-7.1c-0.1-0.4-0.3-0.8-0.4-1.1c-0.1-0.3-0.3-0.6-0.5-0.9
		c-0.2-0.3-0.5-0.5-0.7-0.6c-0.3-0.1-0.6-0.2-1-0.3c-0.4-0.1-0.8-0.1-1.3,0c-0.5,0.1-1.1,0.2-1.8,0.4c-0.7,0.2-1.5,0.5-2.3,0.9
		c-0.8,0.3-1.4,0.6-1.8,0.9l3.4,10.7l2.6-0.8l-2.9-9c0.5-0.2,1-0.4,1.4-0.5C64.5,374.5,65.4,375,65.9,376.3z"/>
	<polygon fill="#FFFFFF" points="81.3,377.9 83.6,376.7 82.6,372.5 81.5,366.9 80.7,365.4 75.3,368.1 74.3,366 71.9,367.2 
		73.9,371.1 79.2,368.5 80.2,373.7 	"/>
	<path fill="#FFFFFF" d="M93.1,371.1c2.4-1.6,3.2-3.7,2.4-6.3c-0.2-0.7-0.5-1.5-1.1-2.4l-2.4-4.4l-2.2,1.4l2.4,4.4
		c0.7,1.2,1,2.2,1,3.2s-0.4,1.7-1.3,2.2l-2.4,1.6l-1.1-1.4c0.2-0.1,0.3-0.2,0.4-0.3c1.9-1.2,2.2-2.9,1.1-4.9l-2-3.6l-2.1,1.4l2,3.6
		c0.3,0.5,0.4,0.9,0.3,1.3c-0.1,0.3-0.3,0.6-0.7,0.9c-0.1,0.1-0.2,0.1-0.2,0.1l-3.6-4.5l-2.2,1.4l7.1,9L93.1,371.1z"/>
	<path fill="#FFFFFF" d="M111.4,355.8l-5.7-5.9c-0.8-0.8-1.7-1.2-2.6-1.1c-0.9,0.1-1.9,0.7-3.1,1.9c-0.6,0.6-1.2,1.2-1.7,1.8
		c-0.6,0.7-1,1.2-1.2,1.6l7.8,8.1L111.4,355.8z M101.2,352.4c0.5-0.5,1-0.8,1.3-1c0.4-0.2,0.8-0.1,1.2,0.3l4.3,4.5l-2.7,2.6
		l-5.1-5.3C100.6,353,100.9,352.7,101.2,352.4z"/>
	<polygon fill="#FFFFFF" points="111.3,350.1 110.8,347.2 106.8,343.7 105,345.8 110.7,350.8 	"/>
	<polygon fill="#FFFFFF" points="114.8,345.9 114.1,343.1 110,339.8 108.3,341.9 114.2,346.6 	"/>
	<path fill="#FFFFFF" d="M121,345.2l1.6-3.3c1.1-2.5,1-4.7-0.3-6.6c-0.4-0.6-1-1.2-1.9-1.9l-3.9-3.1l-1.5,2.2l4.2,3.3
		c0.7,0.5,1.2,1.1,1.5,1.6c0.3,0.5,0.5,1.1,0.5,1.6l-3.4-1.4l-5.1-1.7l-1.5,2.2l9.3,3.1l-1.2,2.7L121,345.2z"/>
	<path fill="#FFFFFF" d="M127.4,334.3l4.2-8.1l-1.8-0.9l-0.6,1.2l-4.8-2.5c-0.6-0.3-1.1-0.5-1.6-0.6c-0.5-0.1-0.9-0.1-1.5,0
		c-0.9,0.2-1.8,1.2-2.7,2.9c-0.6,1.1-1,2.1-1.3,2.9l1.9,1l0.2-0.4c0.3-0.8,0.6-1.6,1-2.2c0.7-1.3,1.6-1.7,2.8-1.1l4.8,2.5l-2.3,4.6
		L127.4,334.3z"/>
	<path fill="#FFFFFF" d="M131.8,321.9c0.6-0.2,1.1-0.6,1.6-1c0.4-0.4,0.8-1,1-1.6c0.6-1.5,0.5-2.8-0.1-3.9c-0.6-1.2-1.9-2.1-3.6-2.7
		c-2.7-1-4.5-1.1-5.6-0.3c-0.5,0.4-1,1-1.3,1.9c-0.2,0.5-0.3,0.9-0.3,1.4l1.9,0.7l0.2-0.5c0.1-0.3,0.2-0.5,0.3-0.7
		c0.3-0.4,0.7-0.6,1.2-0.6c0.6,0,1.5,0.3,2.7,0.7c1.2,0.5,2.1,1,2.5,1.5c0.4,0.5,0.5,1.1,0.3,1.8c-0.3,0.7-0.7,1-1.4,1.1
		c-0.7,0.1-1.6-0.1-2.8-0.5l-5.3-2l-1,2.5l5.3,2c0.9,0.3,1.7,0.5,2.5,0.6S131.2,322.2,131.8,321.9z"/>
	<path fill="#FFFFFF" d="M-56.4,240.2c-0.9,0.6-1.7,1.7-2.5,3.5c-0.4,0.9-0.7,1.8-1,2.9c-0.3,1-0.5,1.8-0.6,2.3l12.4,5l4.1-10.1
		l-9.1-3.7C-54.4,239.7-55.5,239.7-56.4,240.2z M-47.5,246l-1.7,4.1l-8.2-3.3c0.2-0.6,0.4-1.2,0.6-1.6c0.3-0.8,0.6-1.4,1-1.7
		c0.4-0.4,0.9-0.5,1.4-0.2L-47.5,246z"/>
	<polygon fill="#FFFFFF" points="-54.6,235 -46.7,239.3 -46.2,238.4 -47.5,235.2 -53,232.2 	"/>
	<path fill="#FFFFFF" d="M-42,221.5c-0.4-0.2-0.7-0.3-1.1-0.5s-0.8-0.1-1.1-0.1c-0.4,0.1-0.7,0.2-1.1,0.4c-0.4,0.2-0.8,0.5-1.2,1
		c-0.4,0.4-0.9,1-1.4,1.7c-0.5,0.7-1,1.5-1.6,2.4c-0.5,0.9-0.9,1.6-1.1,2.1l10.9,7.7l1.9-2.6l-9.2-6.5c0.3-0.6,0.7-1.1,0.9-1.5
		c1-1.5,2.2-1.7,3.5-0.8l7.3,5.1l1.9-2.6l-7.3-5.1C-41.3,221.9-41.7,221.6-42,221.5z"/>
	<path fill="#FFFFFF" d="M-38.9,214.3c-0.3-0.2-0.6-0.3-0.9-0.4l-2.2,2.2c1.4,0.6,2.5,1.4,3.4,2.3c0.2,0.2,0.4,0.5,0.7,0.7l5.6,6.6
		l2.2-2.2l-5.9-6.9l-0.1-0.2c-0.1-0.4-0.2-0.8-0.2-1.4c0-0.3,0-0.6,0.1-0.9s0.3-0.6,0.5-0.8c0.5-0.5,1-0.7,1.5-0.7
		c0.3,0,0.5,0.1,0.7,0.2c0.5,0.2,1.2,0.7,2.1,1.6l3.5,3.4l-1.8,1.8l1.8,1.7l4.1-4.2l-5.5-5.4c-1-1-1.9-1.6-2.8-2.1
		c-0.5-0.2-1-0.4-1.5-0.4c-0.5,0-1,0-1.5,0.2c-0.5,0.2-1,0.5-1.4,0.9c-0.4,0.4-0.8,0.9-1,1.3c-0.2,0.5-0.4,0.9-0.4,1.2
		c-0.1,0.3-0.1,0.7,0,1c0,0.3,0.1,0.6,0.1,0.7c0,0.1,0.1,0.2,0.1,0.3l-0.1,0.1L-38.9,214.3z"/>
	<path fill="#FFFFFF" d="M-27.6,202.7l-2.9,2.1l8.4,3.2l4.6,1.2l0,0l-2,1.3l-4.2,3.1l1.5,2l9.4-6.9l-1.1-1.5l-4.2-1.2
		c0.2-1,0.2-1.8,0.1-2.6c-0.1-0.4-0.2-0.8-0.3-1.1c-0.2-0.6-0.6-1.4-1.2-2.4l-1.3-2.2l-2.6,1.9l1.6,2.5c0.7,1.2,1.1,2.2,1.1,3.1
		L-27.6,202.7z"/>
	<path fill="#FFFFFF" d="M-2.1,193.5l3.6,8.2l3-1.3l-3.6-8.2c-0.2-0.5-0.4-0.9-0.6-1.3c-0.2-0.4-0.5-0.7-0.7-1
		c-0.3-0.3-0.6-0.5-0.9-0.7c-0.3-0.1-0.7-0.2-1.2-0.2c-0.9-0.1-2,0.2-3.5,0.9c-2,0.9-3.9,1.9-5.7,3l1,2.2l1.3-0.7l2.8,6.5
		c0.2,0.4,0.3,0.8,0.3,1.1c0,0.2-0.1,0.4-0.2,0.5c-0.1,0.2-0.3,0.3-0.5,0.4s-0.6,0.2-1.1,0.3l1,2.2c0.5,0,1-0.1,1.6-0.4
		c0.5-0.2,1-0.5,1.4-0.8c0.4-0.3,0.7-0.7,0.8-1c0.5-0.9,0.4-2.1-0.3-3.6l-2.9-6.7c0.4-0.2,0.8-0.4,1.2-0.5
		C-3.9,191.6-2.8,192-2.1,193.5z"/>
	<path fill="#FFFFFF" d="M5.8,197.4l0.7,2.4l5.9-1.7l0-0.5c0-0.4-0.1-0.9-0.2-1.5c-0.1-0.7-0.2-1.3-0.4-2l-1.5-5.3
		c-0.3-1-0.7-1.7-1.2-2.3c-0.3-0.3-0.6-0.5-1-0.7c-0.4-0.2-0.8-0.2-1.3-0.2c-0.5,0-1.1,0.1-1.7,0.3c-0.7,0.2-1.3,0.4-1.8,0.7L4,189
		c0.5-0.3,1-0.5,1.5-0.6c0.3-0.1,0.5-0.1,0.7,0c0.4,0.1,0.8,0.6,1,1.3l1.3,4.5c0.3,1,0.5,1.8,0.5,2.4L5.8,197.4z"/>
	<path fill="#FFFFFF" d="M16.4,186c-0.2,0.2-0.5,0.5-0.8,1c-0.3,0.5-0.6,1.2-0.8,2.2c-0.2,1-0.2,2.2,0.1,3.7l0.8,4.5l3.2-0.6
		l-0.8-4.5c-0.1-0.6-0.2-1.1-0.2-1.4c0-0.3-0.1-0.7-0.1-1.3c0-0.5,0-1,0-1.5c0.1-0.5,0.2-0.9,0.4-1.4c0.2-0.5,0.4-0.9,0.7-1.2
		l-0.4-2.4l-5.6,1l0.4,2.4l3.3-0.6l0,0.1L16.4,186z"/>
	<path fill="#FFFFFF" d="M30.2,195.6l3.2-0.2l-0.6-8.9c0-0.6-0.1-1-0.2-1.4c-0.1-0.4-0.2-0.8-0.4-1.2c-0.2-0.4-0.4-0.7-0.7-0.9
		c-0.3-0.2-0.6-0.5-1-0.6c-0.4-0.2-0.9-0.3-1.5-0.4c-0.6-0.1-1.3-0.1-2.2,0c-0.9,0.1-1.8,0.2-2.9,0.3c-1.1,0.2-1.8,0.3-2.3,0.5
		l0.2,2.4l0.8-0.2c0.5-0.1,1.2-0.2,2-0.3c0.8-0.1,1.6-0.2,2.2-0.2c1.8-0.1,2.7,0.6,2.8,2.3L30.2,195.6z"/>
	
		<rect x="22.3" y="187.3" transform="matrix(-0.9981 6.185172e-002 -6.185172e-002 -0.9981 59.7005 381.3938)" fill="#FFFFFF" width="3.2" height="8.7"/>
	<path fill="#FFFFFF" d="M45.8,201.7l3.2,0.5l1.9-12.6c0.2-1.3,0.1-2.5-0.2-3.6c-0.2-0.6-0.4-1.1-0.8-1.5c-0.3-0.4-0.8-0.8-1.4-1.2
		s-1.3-0.6-2.1-0.7c-1.4-0.2-2.7-0.3-3.9-0.3l-0.4,2.5c1.5,0.1,2.7,0.2,3.5,0.3c0.5,0.1,0.9,0.2,1.3,0.5c0.8,0.6,1.1,1.7,0.9,3.3
		L45.8,201.7z"/>
	<polygon fill="#FFFFFF" points="53.6,193.3 54.6,193.5 57.4,191.4 58.9,185.3 55.8,184.5 	"/>
	<polygon fill="#FFFFFF" points="61.4,200.3 64.4,201.4 67.2,197.1 71.1,191.6 71.8,189.6 65.1,187.2 66,184.6 63,183.5 61.2,188.4 
		67.9,190.8 64.2,196 	"/>
	
		<rect x="70.7" y="195.8" transform="matrix(-0.8814 -0.4724 0.4724 -0.8814 41.521 410.6181)" fill="#FFFFFF" width="3.2" height="8.7"/>
	<path fill="#FFFFFF" d="M81.9,194.6c-0.5-0.4-1.1-0.8-1.9-1.2c-0.8-0.4-1.6-0.8-2.6-1.2c-1-0.4-1.7-0.7-2.2-0.8l-1.2,2.1l0.7,0.3
		c0.5,0.2,1.1,0.4,1.9,0.8c0.8,0.3,1.4,0.6,2,0.9c1.6,0.8,2,2,1.2,3.4l-4.2,7.8l2.8,1.5l4.2-7.8c0.3-0.5,0.5-0.9,0.6-1.3
		c0.1-0.4,0.3-0.8,0.3-1.2c0.1-0.4,0-0.8-0.1-1.2c-0.1-0.4-0.3-0.7-0.5-1.1C82.7,195.4,82.3,195,81.9,194.6z"/>
	<path fill="#FFFFFF" d="M83.4,208.2c-0.2,0.1-0.4,0.1-0.6,0.1c-0.2,0-0.4-0.1-0.6-0.3c-0.2-0.2-0.5-0.4-0.8-0.8l-1.5,1.9
		c0.3,0.4,0.6,0.8,1.1,1.2c0.5,0.4,0.9,0.6,1.4,0.8c0.5,0.2,0.9,0.3,1.3,0.3c1,0,2.1-0.7,3.1-2l4.4-5.8c0.4,0.3,0.7,0.5,1,0.8
		c1.4,1.1,1.6,2.3,0.6,3.6l-5.4,7.1l2.6,2l5.4-7.1c0.3-0.4,0.6-0.8,0.8-1.2c0.2-0.4,0.4-0.7,0.5-1.1s0.2-0.8,0.1-1.1
		c0-0.4-0.2-0.8-0.4-1.2c-0.4-0.8-1.2-1.7-2.5-2.6c-1.7-1.3-3.5-2.5-5.4-3.6l-1.5,1.9l1.3,0.8l-4.3,5.6
		C84,207.8,83.7,208,83.4,208.2z"/>
	<polygon fill="#FFFFFF" points="-34.3,291.5 -20.6,287.8 -21.8,283.2 -29.7,285.3 -32,277 -24.9,275.1 -26.1,270.5 -33.2,272.4 
		-35.1,265.3 -27.2,263.1 -28.5,258.1 -42.3,261.8 	"/>
	<path fill="#FFFFFF" d="M-24.3,257l7.9,29.6l5-1.3l-5.3-19.7c-0.4-1.6-1.1-3.7-1.8-5.3l0.2-0.1l12.4,23.5l6.1-1.6l-1.1-26.6l0.2,0
		c0.3,1.7,0.7,3.6,1.1,5.2l5.3,19.9l5.4-1.5l-7.9-29.6l-8.8,2.4l1.2,24.7l-0.2,0l-11.4-22L-24.3,257z"/>
	<path fill="#FFFFFF" d="M15.9,246.2l-7.7,2.1l7.9,29.6l9-2.4c2.5-0.7,4.3-1.8,5.4-3.7c1-1.9,1.2-4.1,0.5-6.9
		c-0.5-1.9-1.2-3.3-2.3-4.3c-1.1-1-2.4-1.4-4.2-1.4l-0.1-0.2c1.2-0.6,2-1.5,2.4-2.9c0.4-1.4,0.4-2.9-0.1-4.6c-0.7-2.6-2-4.4-3.7-5.2
		C21.4,245.5,19,245.4,15.9,246.2z M21.5,253.8c0.3,1.2,0.3,2.2,0,3c-0.3,0.8-1.1,1.3-2.2,1.6l-2.4,0.6l-1.9-7.1l2.2-0.6
		c1.2-0.3,2.1-0.3,2.8,0.1C20.7,251.7,21.2,252.5,21.5,253.8z M25.3,269.5c-0.4,0.9-1.1,1.4-2.3,1.7l-2.7,0.7l-2.2-8.3l2.6-0.7
		c2.3-0.6,3.9,0.4,4.6,3.1C25.7,267.4,25.7,268.6,25.3,269.5z"/>
	<path fill="#FFFFFF" d="M39.8,259.5l2-0.5l7.7,10l5.9-1.6L46.4,256c2.1-2.2,2.7-5.1,1.7-8.8c-0.8-3-2.1-5.1-4-6.1
		c-1.9-1.1-4.3-1.2-7.4-0.4l-7.2,1.9l7.9,29.6l5.4-1.5L39.8,259.5z M42.5,252.3c-0.4,0.9-1.2,1.4-2.5,1.7l-1.5,0.4l-2.2-8.3l1.4-0.4
		c1.3-0.3,2.3-0.3,3.1,0.2c0.8,0.5,1.4,1.4,1.8,2.9C42.9,250.3,42.9,251.5,42.5,252.3z"/>
	<polygon fill="#FFFFFF" points="60.6,246.9 53.5,236.2 47.7,237.7 59.8,254 62.9,265.4 68.3,264 65.2,252.3 67.3,232.5 61.5,234 	
		"/>
	<path fill="#FFFFFF" d="M72.1,235.1c-1.1,3.1-1.1,7.2,0.3,12.1c1.3,5,3.3,8.5,5.8,10.7c2.6,2.1,5.6,2.8,9,1.8
		c3.4-0.9,5.7-3,6.9-6.1c1.1-3.1,1-7.2-0.3-12.1s-3.3-8.5-5.8-10.6c-2.5-2.2-5.5-2.8-9-1.8C75.6,229.9,73.2,231.9,72.1,235.1z
		 M85.9,254.8c-1.7,0.4-3.2-0.1-4.5-1.7c-1.3-1.6-2.5-4-3.4-7.4c-0.9-3.4-1.2-6.1-0.8-8.1c0.4-2,1.4-3.2,3.1-3.7
		c3.3-0.9,5.9,2.1,7.8,9.1C90,249.9,89.2,253.9,85.9,254.8z"/>
	<path fill="#FFFFFF" d="M-46.5,317.9c-0.5-1.9-1.1-3.6-1.9-5.2l0.3-0.1l14.9,18.8l6.8-1.8l-7.9-29.6l-5,1.3l4.4,16.4
		c0.5,2,0.9,3.6,1.5,4.8l-0.2,0.1l-14.8-18.8l-6.7,1.8l7.9,29.6l5-1.3L-46.5,317.9z"/>
	<path fill="#FFFFFF" d="M-5.7,321.8c1.1-2.3,1.3-5.3,0.4-8.8l-5.2-19.4l-5.8,1.6L-11,315c0.5,1.8,0.6,3.2,0.2,4.4
		c-0.4,1.1-1,1.8-2.2,2.1c-2.5,0.7-4.1-0.9-5.1-4.7l-5.3-19.8l-5.8,1.6l5.2,19.4c1,3.6,2.5,6.2,4.6,7.6s4.6,1.7,7.6,0.9
		C-8.9,325.7-6.8,324.1-5.7,321.8z"/>
	<polygon fill="#FFFFFF" points="11.6,319.4 5,294.8 10.4,293.3 9.1,288.3 -7.6,292.8 -6.3,297.8 -0.4,296.2 6.2,320.9 	"/>
	<path fill="#FFFFFF" d="M31,292.1c-0.8-3-2.1-5.1-4-6.2c-1.8-1.1-4.3-1.3-7.4-0.4l-7.2,1.9l7.9,29.6l5.4-1.5l-3-11.3l2-0.5l7.7,10
		l5.9-1.6l-9.2-11.4C31.4,298.7,32,295.9,31,292.1z M25.5,297.2c-0.4,0.9-1.2,1.4-2.5,1.7l-1.5,0.4l-2.2-8.3l1.4-0.4
		c1.3-0.3,2.3-0.3,3.1,0.2c0.8,0.5,1.4,1.4,1.8,2.9C25.9,295.2,25.8,296.3,25.5,297.2z"/>
	
		<rect x="38" y="280.4" transform="matrix(-0.9659 0.2588 -0.2588 -0.9659 156.7918 570.7618)" fill="#FFFFFF" width="5.6" height="30.7"/>
	<polygon fill="#FFFFFF" points="63,305.7 56.4,281 62.2,279.5 60.9,274.5 43.7,279 45.1,284 50.9,282.5 57.5,307.1 	"/>
	
		<rect x="68.9" y="272.1" transform="matrix(-0.9659 0.2588 -0.2588 -0.9659 214.976 546.6611)" fill="#FFFFFF" width="5.2" height="30.7"/>
	<path fill="#FFFFFF" d="M101.1,291.9c1.1-3.1,1-7.2-0.3-12.1c-1.3-4.9-3.3-8.5-5.8-10.6c-2.5-2.2-5.5-2.8-9-1.8
		c-3.5,0.9-5.8,3-6.9,6.1c-1.1,3.1-1.1,7.2,0.3,12.1c1.3,5,3.3,8.5,5.8,10.7c2.6,2.1,5.6,2.8,9,1.8
		C97.7,297.1,100,295.1,101.1,291.9z M92.9,293.1c-1.7,0.4-3.2-0.1-4.5-1.7c-1.3-1.6-2.5-4-3.4-7.4c-0.9-3.4-1.2-6.1-0.8-8.1
		s1.4-3.2,3.1-3.7c3.3-0.9,5.9,2.1,7.8,9.1C97,288.3,96.3,292.2,92.9,293.1z"/>
	<path fill="#FFFFFF" d="M121.6,275.8c0.5,2,0.8,3.7,1.4,4.8l-0.2,0.1L108,261.8l-6.6,1.8l7.9,29.6l5-1.3l-4.3-16
		c-0.5-1.9-1.2-3.6-2-5.2l0.3-0.1l14.9,18.8l7-1.9l-7.9-29.6l-5,1.3L121.6,275.8z"/>
	<g>
		<path fill="#7AC943" d="M93.5,176.8C65.6,160.7,33.1,156.4,2,164.7c-31.1,8.3-57.1,28.3-73.2,56.2c-9.9,17.1-15.4,35.8-16.1,55.2
			l6.6-1.8C-77.8,226.6-44.9,184,3.7,171c48.6-13,98.4,7.4,124.7,47.3l6.6-1.8C124.7,200.1,110.6,186.6,93.5,176.8z"/>
		<path fill="#7AC943" d="M147.1,288c-3,47.3-35.8,90.3-84.3,103.3c-48.6,13-98.5-7.8-124.7-47.3l-6.6,1.8
			c10.2,16,24.4,29.8,41.5,39.7c27.9,16.1,60.4,20.4,91.5,12c31.1-8.3,57.1-28.3,73.2-56.1c9.9-17.1,15.3-36.2,16.1-55.2L147.1,288z
			"/>
		<path fill="#7AC943" d="M49.9,343.3c22.1-5.9,38.5-22.5,44.9-43.1l-2.5,0.7c-6.5,19.2-22.1,34.7-43,40.3
			c-20.9,5.6-42.2,0-57.4-13.4l-2.5,0.7C5.2,343,27.8,349.2,49.9,343.3z"/>
		<path fill="#7AC943" d="M17,220.7c17.9-4.8,36-1.4,50.4,8.2l2.8-0.7c-15.1-10.7-34.6-14.6-53.8-9.5s-34,18.3-41.8,35.1l2.8-0.7
			C-14.9,237.5-0.9,225.5,17,220.7z"/>
	</g>
</g>
</svg>
