<?xml version="1.0" encoding="utf-8"?>
<!-- Generator: Adobe Illustrator 18.0.0, SVG Export Plug-In . SVG Version: 6.00 Build 0)  -->
<!DOCTYPE svg PUBLIC "-//W3C//DTD SVG 1.1//EN" "http://www.w3.org/Graphics/SVG/1.1/DTD/svg11.dtd">
<svg version="1.1" id="Layer_1" xmlns="http://www.w3.org/2000/svg" xmlns:xlink="http://www.w3.org/1999/xlink" x="0px" y="0px"
	 width="43.3px" height="50px" viewBox="0 0 43.3 50" enable-background="new 0 0 43.3 50" xml:space="preserve">
<symbol  id="New_Symbol_2" viewBox="-119.5 -138 239 276.1">
	<g id="background_2_">
		<g>
			<path fill="none" d="M112.5-65L112.5-65l0,41.2v60v28.6L93.7,75.8L63,93.5L0.1,129.9l-44.5-25.7l-68.1-39.3V40V6.9v-71.8
				l12.5-7.2l38.8-22.4l42.2-24.4l19.1-11l47.3,27.3l36.1,20.8L112.5-65z M0.1-121.7l-11.5,6.7l-46.9,27.1l-43.1,24.8l-4,2.3v22.5
				v78.6v20.5l65.3,37.6L0,121.7l56.9-32.8l33.2-19.2l15.4-8.8V33.5v-52.3V-61h0L69.2-81.8L50.5-92.6L0.1-121.7z"/>
			
				<linearGradient id="SVGID_1_" gradientUnits="userSpaceOnUse" x1="7802.1992" y1="-8510.8604" x2="7802.6211" y2="-8510.4385" gradientTransform="matrix(637 0 0 -414 -4970169 -3523302.25)">
				<stop  offset="0" style="stop-color:#00A5B1"/>
				<stop  offset="1" style="stop-color:#00A1AE"/>
			</linearGradient>
			<polygon fill="url(#SVGID_1_)" points="56.9,88.8 0.1,121.7 -40.1,98.4 -0.2,44.4 			"/>
			
				<linearGradient id="SVGID_2_" gradientUnits="userSpaceOnUse" x1="7802.2285" y1="-8510.8896" x2="7802.6504" y2="-8510.4678" gradientTransform="matrix(637 0 0 -414 -4970169 -3523302.25)">
				<stop  offset="0" style="stop-color:#00A5B1"/>
				<stop  offset="1" style="stop-color:#00A1AE"/>
			</linearGradient>
			<polygon fill="url(#SVGID_2_)" points="0.1,129.9 63,93.5 69,98.2 0.1,138 -48.6,109.9 -44.4,104.2 			"/>
			
				<linearGradient id="SVGID_3_" gradientUnits="userSpaceOnUse" x1="7788.4004" y1="-8510.3242" x2="7788.8223" y2="-8509.9014" gradientTransform="matrix(306 0 0 -425 -2383405.5 -3616703.5)">
				<stop  offset="0" style="stop-color:#008591"/>
				<stop  offset="1" style="stop-color:#00A3B0"/>
			</linearGradient>
			<polygon fill="url(#SVGID_3_)" points="-40.2,98.4 -105.5,60.8 -105.5,40.3 -0.4,44.4 			"/>
			
				<linearGradient id="SVGID_4_" gradientUnits="userSpaceOnUse" x1="7788.3896" y1="-8510.3125" x2="7788.8115" y2="-8509.8906" gradientTransform="matrix(306 0 0 -425 -2383405.5 -3616703.5)">
				<stop  offset="0" style="stop-color:#008591"/>
				<stop  offset="1" style="stop-color:#00A3B0"/>
			</linearGradient>
			<polygon fill="url(#SVGID_4_)" points="-112.5,40 -112.5,64.9 -44.4,104.2 -48.7,109.9 -119.5,69 -119.5,69 -117.6,39.8 			"/>
			
				<linearGradient id="SVGID_5_" gradientUnits="userSpaceOnUse" x1="7785.8164" y1="-8509.1621" x2="7786.2393" y2="-8508.7402" gradientTransform="matrix(278 0 0 -469 -2164557.25 -3990723.25)">
				<stop  offset="0" style="stop-color:#008D99"/>
				<stop  offset="1" style="stop-color:#00A5B2"/>
			</linearGradient>
			<polygon fill="url(#SVGID_5_)" points="-105.5,40.3 -105.5,-38.3 -101.5,-63.1 -58.4,-87.9 -0.3,44.4 			"/>
			
				<linearGradient id="SVGID_6_" gradientUnits="userSpaceOnUse" x1="7785.6812" y1="-8509.0264" x2="7786.1035" y2="-8508.6045" gradientTransform="matrix(278 0 0 -469 -2164557.25 -3990723.25)">
				<stop  offset="0" style="stop-color:#008D99"/>
				<stop  offset="1" style="stop-color:#00A5B2"/>
			</linearGradient>
			<polygon fill="url(#SVGID_6_)" points="-100,-72.1 -98.6,-81.1 -64.1,-101 -61.2,-94.5 			"/>
			
				<linearGradient id="SVGID_7_" gradientUnits="userSpaceOnUse" x1="7785.7407" y1="-8509.0869" x2="7786.1631" y2="-8508.6641" gradientTransform="matrix(278 0 0 -469 -2164557.25 -3990723.25)">
				<stop  offset="0" style="stop-color:#008D99"/>
				<stop  offset="1" style="stop-color:#00A5B2"/>
			</linearGradient>
			<polygon fill="url(#SVGID_7_)" points="-117.7,39.8 -112.5,6.9 -112.5,40 			"/>
			
				<linearGradient id="SVGID_8_" gradientUnits="userSpaceOnUse" x1="7790.5493" y1="-8509.1162" x2="7790.9712" y2="-8508.6934" gradientTransform="matrix(334 0 0 -469 -2602125.25 -3990723.25)">
				<stop  offset="0" style="stop-color:#008994"/>
				<stop  offset="1" style="stop-color:#00A1AD"/>
			</linearGradient>
			<polygon fill="url(#SVGID_8_)" points="-0.2,44.4 -58.4,-87.9 -11.5,-115 53.8,-81.8 			"/>
			
				<linearGradient id="SVGID_9_" gradientUnits="userSpaceOnUse" x1="7790.437" y1="-8509.0029" x2="7790.8589" y2="-8508.5811" gradientTransform="matrix(334 0 0 -469 -2602125.25 -3990723.25)">
				<stop  offset="0" style="stop-color:#008994"/>
				<stop  offset="1" style="stop-color:#00A1AD"/>
			</linearGradient>
			<polygon fill="url(#SVGID_9_)" points="-61.2,-94.5 -64.1,-101 -26.6,-122.7 -19,-118.8 			"/>
			
				<linearGradient id="SVGID_10_" gradientUnits="userSpaceOnUse" x1="7790.6748" y1="-8512.7344" x2="7791.0972" y2="-8512.3125" gradientTransform="matrix(334 0 0 -401 -2602125.25 -3413631.5)">
				<stop  offset="0" style="stop-color:#00AAB8"/>
				<stop  offset="1" style="stop-color:#01A8B5"/>
			</linearGradient>
			<polygon fill="url(#SVGID_10_)" points="-11.5,-115 0.1,-121.7 50.5,-92.5 53.8,-81.8 			"/>
			
				<linearGradient id="SVGID_11_" gradientUnits="userSpaceOnUse" x1="7790.6411" y1="-8512.7002" x2="7791.063" y2="-8512.2783" gradientTransform="matrix(334 0 0 -401 -2602125.25 -3413631.5)">
				<stop  offset="0" style="stop-color:#00AAB8"/>
				<stop  offset="1" style="stop-color:#01A8B5"/>
			</linearGradient>
			<polygon fill="url(#SVGID_11_)" points="47.4,-102.5 0.1,-129.9 -19,-118.8 -26.6,-122.7 0.1,-138 44.3,-112.5 			"/>
			
				<linearGradient id="SVGID_12_" gradientUnits="userSpaceOnUse" x1="7761.8496" y1="-8500.4219" x2="7762.272" y2="-8500" gradientTransform="matrix(151 0 0 -888 -1172204 -7548058)">
				<stop  offset="0" style="stop-color:#009AA6"/>
				<stop  offset="1" style="stop-color:#01A1AE"/>
			</linearGradient>
			<polygon fill="url(#SVGID_12_)" points="-119.5,69 -119.5,33.9 -117.6,39.8 			"/>
			
				<linearGradient id="SVGID_13_" gradientUnits="userSpaceOnUse" x1="7779.0166" y1="-8509.4297" x2="7779.439" y2="-8509.0068" gradientTransform="matrix(223 0 0 -463 -1734883.75 -3939788)">
				<stop  offset="0" style="stop-color:#0196A2"/>
				<stop  offset="1" style="stop-color:#047F88"/>
			</linearGradient>
			<polygon fill="url(#SVGID_13_)" points="-112.5,-64.9 -112.5,6.9 -117.6,39.8 -119.5,33.9 -119.5,-69 -98.6,-81.1 -100,-72.1 			
				"/>
			
				<linearGradient id="SVGID_14_" gradientUnits="userSpaceOnUse" x1="7779.0078" y1="-8509.4209" x2="7779.4302" y2="-8508.999" gradientTransform="matrix(223 0 0 -463 -1734883.75 -3939788)">
				<stop  offset="0" style="stop-color:#0196A2"/>
				<stop  offset="1" style="stop-color:#047F88"/>
			</linearGradient>
			<polygon fill="url(#SVGID_14_)" points="-105.5,-60.8 -101.6,-63.1 -105.5,-38.3 			"/>
			
				<linearGradient id="SVGID_15_" gradientUnits="userSpaceOnUse" x1="7796.9077" y1="-8512.5947" x2="7797.3296" y2="-8512.1729" gradientTransform="matrix(457 0 0 -402 -3563159.5 -3422121.5)">
				<stop  offset="0" style="stop-color:#00939D"/>
				<stop  offset="1" style="stop-color:#03B9C6"/>
			</linearGradient>
			<polygon fill="url(#SVGID_15_)" points="47.4,-102.5 44.3,-112.5 97.8,-81.6 83.5,-81.7 			"/>
			
				<linearGradient id="SVGID_16_" gradientUnits="userSpaceOnUse" x1="7796.9077" y1="-8512.5947" x2="7797.3296" y2="-8512.1729" gradientTransform="matrix(457 0 0 -402 -3563159.5 -3422121.5)">
				<stop  offset="0" style="stop-color:#00939D"/>
				<stop  offset="1" style="stop-color:#03B9C6"/>
			</linearGradient>
			<polygon fill="url(#SVGID_16_)" points="53.8,-81.8 50.5,-92.5 69.2,-81.7 			"/>
			
				<linearGradient id="SVGID_17_" gradientUnits="userSpaceOnUse" x1="7754.5615" y1="-8519.4395" x2="7754.9834" y2="-8519.0176" gradientTransform="matrix(137 0 0 -299 -1062365 -2547245.75)">
				<stop  offset="0" style="stop-color:#14BCC9"/>
				<stop  offset="1" style="stop-color:#08BCCB"/>
			</linearGradient>
			<polygon fill="url(#SVGID_17_)" points="-0.2,44.4 53.8,-81.8 57.6,14.9 			"/>
			
				<linearGradient id="SVGID_18_" gradientUnits="userSpaceOnUse" x1="7789.8735" y1="-8516.4082" x2="7790.2959" y2="-8515.9854" gradientTransform="matrix(331 0 0 -327 -2578474.25 -2784738)">
				<stop  offset="0" style="stop-color:#008B93"/>
				<stop  offset="1" style="stop-color:#00A1AD"/>
			</linearGradient>
			<polygon fill="url(#SVGID_18_)" points="57.6,14.9 90.1,69.7 56.9,88.8 -0.2,44.4 			"/>
			
				<linearGradient id="SVGID_19_" gradientUnits="userSpaceOnUse" x1="7789.9736" y1="-8516.5078" x2="7790.396" y2="-8516.0859" gradientTransform="matrix(331 0 0 -327 -2578474.25 -2784738)">
				<stop  offset="0" style="stop-color:#008B93"/>
				<stop  offset="1" style="stop-color:#00A1AD"/>
			</linearGradient>
			<polygon fill="url(#SVGID_19_)" points="93.7,75.8 97.3,81.9 69,98.2 63,93.5 			"/>
			
				<linearGradient id="SVGID_20_" gradientUnits="userSpaceOnUse" x1="7789.7993" y1="-8528.1172" x2="7790.2207" y2="-8527.6953" gradientTransform="matrix(333 0 0 -229 -2593976.25 -1952942.625)">
				<stop  offset="0" style="stop-color:#05B6C5"/>
				<stop  offset="1" style="stop-color:#15BDCC"/>
			</linearGradient>
			<polygon fill="url(#SVGID_20_)" points="112.5,-65 112.5,-65 83.5,-81.7 97.7,-81.6 119.5,-69 119.5,-28.7 112.5,-23.7 			"/>
			
				<linearGradient id="SVGID_21_" gradientUnits="userSpaceOnUse" x1="7789.7778" y1="-8528.0957" x2="7790.2002" y2="-8527.6729" gradientTransform="matrix(333 0 0 -229 -2593976.25 -1952942.625)">
				<stop  offset="0" style="stop-color:#05B6C5"/>
				<stop  offset="1" style="stop-color:#15BDCC"/>
			</linearGradient>
			<polygon fill="url(#SVGID_21_)" points="53.8,-81.8 69.2,-81.8 105.5,-61 105.5,-61 105.5,-18.7 57.7,14.9 			"/>
			
				<linearGradient id="SVGID_22_" gradientUnits="userSpaceOnUse" x1="7781.9194" y1="-8516.3574" x2="7782.3418" y2="-8515.9355" gradientTransform="matrix(254 0 0 -327 -1976582.625 -2784738)">
				<stop  offset="0" style="stop-color:#00AEBC"/>
				<stop  offset="1" style="stop-color:#00B5C1"/>
			</linearGradient>
			<polygon fill="url(#SVGID_22_)" points="105.5,33.5 105.5,60.8 90.1,69.7 57.7,14.9 			"/>
			
				<linearGradient id="SVGID_23_" gradientUnits="userSpaceOnUse" x1="7782.0098" y1="-8516.4482" x2="7782.4316" y2="-8516.0264" gradientTransform="matrix(254 0 0 -327 -1976582.625 -2784738)">
				<stop  offset="0" style="stop-color:#00AEBC"/>
				<stop  offset="1" style="stop-color:#00B5C1"/>
			</linearGradient>
			<polygon fill="url(#SVGID_23_)" points="112.5,64.9 112.5,36.3 119.5,39.1 119.5,69 97.3,81.9 93.7,75.8 			"/>
			
				<linearGradient id="SVGID_24_" gradientUnits="userSpaceOnUse" x1="7789.1538" y1="-8516.877" x2="7789.5762" y2="-8516.4541" gradientTransform="matrix(324 0 0 -327 -2523632.25 -2784966)">
				<stop  offset="0" style="stop-color:#4AC4DA"/>
				<stop  offset="1" style="stop-color:#36C0D3"/>
			</linearGradient>
			<polygon fill="url(#SVGID_24_)" points="105.5,-18.7 105.5,33.5 57.7,14.9 			"/>
			
				<linearGradient id="SVGID_25_" gradientUnits="userSpaceOnUse" x1="7789.1816" y1="-8516.9043" x2="7789.603" y2="-8516.4824" gradientTransform="matrix(324 0 0 -327 -2523632.25 -2784966)">
				<stop  offset="0" style="stop-color:#4AC4DA"/>
				<stop  offset="1" style="stop-color:#36C0D3"/>
			</linearGradient>
			<polygon fill="url(#SVGID_25_)" points="112.5,-23.7 119.5,-28.7 119.5,39.1 112.5,36.3 			"/>
		</g>
	</g>
	<g id="Lines-3_2_">
		<g>
			<polygon opacity="0.2" fill="#FFFFFF" enable-background="new    " points="-43.8,104.5 -48,110.3 -49.2,109.6 -45,103.8 			"/>
			<polygon opacity="0.2" fill="#FFFFFF" enable-background="new    " points="-118.9,69.4 -119.5,69 -119.5,58.4 -118.3,40.5 
				-118.4,40.5 -118.3,39.9 -119.5,36.2 -119.5,31.7 -117.9,36.8 -112.5,2.4 -112.5,11.4 -116.9,39.1 -112.5,39.3 -112.5,40.7 
				-117,40.5 			"/>
			<polygon opacity="0.2" fill="#FFFFFF" enable-background="new    " points="-105.5,-42.8 -102.3,-62.6 -100.8,-63.5 
				-105.5,-33.8 			"/>
			<polygon opacity="0.2" fill="#FFFFFF" enable-background="new    " points="-100.8,-71.6 -99.3,-80.7 -97.8,-81.6 -99.2,-72.5 
							"/>
			<polygon opacity="0.2" fill="#FFFFFF" enable-background="new    " points="97.9,81.5 96.7,82.2 93.1,76.1 94.3,75.4 			"/>
			<polygon opacity="0.2" fill="#FFFFFF" enable-background="new    " points="69.7,97.8 68.4,98.6 62.3,93.9 63.6,93.1 			"/>
			<path opacity="0.2" fill="#FFFFFF" enable-background="new    " d="M59.3,16.3l17.1,28.8l14.4,24.2L89.5,70L57.4,15.9L57,16.2
				l0-0.2l-29,14.8L1.1,44.6l56.5,43.9l-1.3,0.8L0.1,45.6l-0.3,0.6l-0.2-0.4l-39.2,53l-1.2-0.7l39.1-53L-105.5,41v-1.4l104.1,4.1
				l-28.1-64.2L-59-87.6l1.2-0.7l57.5,131L52.9-81.4l-65.1-33.1l1.4-0.8l63.4,32.3l-3.1-9.9l1.8,1l2.5,8.2l0.5-1.1l0.1,2.4l13.5,0
				l2.4,1.4l-15.7,0l0.2,0.7l-0.4-0.2l3.7,94.2l47.2-33.2v1.7L81.2-0.8l-22,15.5l46.4,18.1v1.5l-15.9-6.2L59.3,16.3z M53.2-78.6
				L1.2,42.9l26.5-13.6l28.9-14.8L56,13.5l0.9,0.3L53.2-78.6z"/>
			<polygon opacity="0.2" fill="#FFFFFF" enable-background="new    " points="82.3,-82.4 96.5,-82.3 99,-80.9 84.7,-81 			"/>
			<polygon opacity="0.2" fill="#FFFFFF" enable-background="new    " points="112.5,-24.6 119.5,-29.6 119.5,-27.9 112.5,-22.9 			
				"/>
			<polygon opacity="0.2" fill="#FFFFFF" enable-background="new    " points="112.5,37 112.5,35.5 119.5,38.3 119.5,39.8 			"/>
			<polygon opacity="0.2" fill="#FFFFFF" enable-background="new    " points="-64.7,-100.7 -63.5,-101.4 -60.6,-94.8 -61.8,-94.1 
							"/>
			<polygon opacity="0.2" fill="#FFFFFF" enable-background="new    " points="43.4,-113 45.2,-112 48.3,-102 46.5,-103 			"/>
			<polygon opacity="0.2" fill="#FFFFFF" enable-background="new    " points="-27.3,-122.3 -25.8,-123.1 -18.3,-119.3 
				-19.7,-118.4 			"/>
		</g>
	</g>
	<g id="Lines-2_2_">
		<path opacity="0.2" fill="#FFFFFF" enable-background="new    " d="M-119.5-15.6v1.8l7,6v-1.8L-119.5-15.6z M119.5,57.3v1.6
			l-7,4.1v-1.6l0,0L119.5,57.3z M17.4,111.6l-3,1.7L-9.8,116l-2.1-1.2L17.4,111.6z M-119.5-64.3v-2.5l2.6-3.8l2.8-1.6L-119.5-64.3z
			 M28.6,121.6l-0.6-7.8l2.2-1.3l3.9,6l-1.2,0.7l-3.4-5.3l0.5,7L28.6,121.6z M119.5,1.8l-7-0.9v-1.4l7,0.9V1.8z M-91.6-76.9
			l29.7-25.3l6.6-3.8l-29.7,25.3L-91.6-76.9z M-21.8,117.2l-12,1.3l-2.1-1.2l12-1.3L-21.8,117.2z M-112.5-59.2v1.8l-7,6.1v-1.8
			l6.2-5.3L-112.5-59.2z M-105.5-1.7v-1.8L24.9,107.3l-1.2,0.7l-84.9-72.2L-105.5-1.7z M-36-20.2L105.5-1.4V0l-9.8-1.3l-201.2-26.6
			v-1.4L-36-20.2z M-119.5-31.2l7,0.9v1.4l-7-0.9V-31.2z"/>
	</g>
	<g id="Lines-1_2_">
		<g>
			<polygon opacity="0.3" fill="#FFFFFF" enable-background="new    " points="-119.5,-33.1 -119.5,-38.3 -115.6,-52.5 
				-117.9,-50.6 -116.1,-53.2 -119.5,-52 -119.5,-53.5 -117.5,-54.2 -119.5,-54.4 -119.5,-55.8 -116.5,-55.5 -116.6,-55.6 
				-114.8,-55.3 -114.7,-55.8 -114.5,-55.6 -112.5,-58.5 -112.5,-55.2 -112.7,-55.1 -112.5,-55.1 -112.5,-52 -114,-53.3 			"/>
			<polygon opacity="0.3" fill="#FFFFFF" enable-background="new    " points="-17.9,127.7 -39.2,115.4 -96.5,77.8 -119.5,62.7 
				-119.5,61.1 -97.5,75.5 			"/>
			<polygon opacity="0.3" fill="#FFFFFF" enable-background="new    " points="0.1,138 -0.6,137.7 0.6,137.8 			"/>
			<polygon opacity="0.3" fill="#FFFFFF" enable-background="new    " points="103.6,78.3 99.8,80.5 78,84.8 81.8,82.6 			"/>
			<polygon opacity="0.3" fill="#FFFFFF" enable-background="new    " points="-119.5,43.8 -112.5,43 -112.5,44.4 -119.5,45.2 			
				"/>
			<polygon opacity="0.3" fill="#FFFFFF" enable-background="new    " points="55,106.3 53.5,107.2 45.8,103.4 47.3,102.6 			"/>
			<polygon opacity="0.3" fill="#FFFFFF" enable-background="new    " points="-2.6,136.2 3.2,128 6.1,126.4 -1.5,137.1 -4,135.7 
				-4.7,127.1 -3.3,127.9 			"/>
			<polygon opacity="0.3" fill="#FFFFFF" enable-background="new    " points="112.5,-8.5 119.5,-1.7 119.5,0.3 112.5,-6.6 			"/>
			<polygon opacity="0.3" fill="#FFFFFF" enable-background="new    " points="112.5,43.4 112.5,38.6 119.5,62.2 119.5,67 			"/>
			<polygon opacity="0.3" fill="#FFFFFF" enable-background="new    " points="112.5,-43.8 119.5,-49.2 119.5,-47.4 112.5,-42 			
				"/>
			<polygon opacity="0.3" fill="#FFFFFF" enable-background="new    " points="-84,-81.3 -54.3,-106.7 -47.7,-110.5 -77.4,-85.2 			
				"/>
			<polygon opacity="0.3" fill="#FFFFFF" enable-background="new    " points="-105.1,-69.1 -95.8,-82.7 -93,-84.3 -102.3,-70.7 			
				"/>
			<path opacity="0.3" fill="#FFFFFF" enable-background="new    " d="M29.4,93.1L60.1,87l-3.8,2.2l-26,5.2l9.3,4.5l-1.5,0.8
				L28.4,95l-0.2,0.5l-0.1-0.1l-12.1,17.1l-2.9,1.7l14-19.8l-1.1-0.5l1-0.2L8.6,65.2l-19.1-29.6l6.6,83.7l-1.5-0.8l-6.8-84.8
				l-93.3,10v-1.4l92.3-9.9l-52.3-44.5L-105.5-46v-1.8l93.1,79.1l0-1.1l1.2,1.8L38.3,3.2l51.6-30l-43-5.7l-152.4-20.2v-1.4
				l99.6,13.2l96.8,12.8L73.4-79.3l1.9,1.1L92.1-29l0-0.1l0.2,0.7l13.1-9.9v1.8l-11.7,8.9l0.3,0l-0.9,0.6l12.3,11.8v1.9l-12-11.5
				l12,39.9v4.8L91.9-25.4L29.4,93.1z M-10.3,33l0.5,0.4l-0.5,0.1L9.3,63.7L28,92.7L90.2-25.4L-10.3,33z"/>
			<polygon opacity="0.3" fill="#FFFFFF" enable-background="new    " points="66.5,-99.7 68.3,-98.6 71.8,-88.4 70,-89.5 			"/>
		</g>
	</g>
	<g id="Circules_2_">
		<path opacity="0.77" fill="#FFFFFF" enable-background="new    " d="M-119.5-51.6c0.6,0.4,1.2,0.6,1.9,0.6c2,0,3.6-1.6,3.6-3.5
			c0-1.9-1.6-3.5-3.6-3.5c-0.7,0-1.4,0.2-1.9,0.6V-51.6z M-5.2,135c0.6-0.4,1.3-0.7,2.1-0.7c2,0,3.6,1.6,3.6,3.5c0,0,0,0,0,0
			L0.1,138L-5.2,135z M-15,33.4c0-1.9,1.6-3.5,3.6-3.5s3.6,1.6,3.6,3.5s-1.6,3.5-3.6,3.5S-15,35.4-15,33.4z M56.5-82.2
			c0,2.6-2.2,4.8-4.9,4.8s-4.9-2.1-4.9-4.8s2.2-4.8,4.9-4.8S56.5-84.9,56.5-82.2z M95.5-27.2c0,1.9-1.6,3.5-3.6,3.5
			s-3.6-1.6-3.6-3.5s1.6-3.5,3.6-3.5S95.5-29.2,95.5-27.2z"/>
	</g>
	<g id="cat_face_2_">
		<g>
			<g>
				<g>
					<path fill="#FFFFFF" d="M-48-47.1l4.4-18.3l0.4-1.9l0.3,1.9l4.7,18.6h4.8l-7.1-25.3h-4.9l-5,18.6l-0.3,1.5l-0.3-1.4l-5-18.7h-5
						l-7.2,25.3h4.8l4.7-18.6l0.3-1.9l0.4,1.9l4.5,18.3L-48-47.1L-48-47.1z"/>
					<path fill="#FFFFFF" d="M-27.9-66.6l-1.8-5.5h-4.9l9.1,25.3h4.9l9.1-25.3h-5.1l-6.3,18.9l-0.3,1.3l-0.3-1.4l-3-9.1l-0.4-0.7
						l0.5,0.1h2.7c0.5,0,0.9-0.2,1.3-0.4s0.7-0.5,1-0.8c0.3-0.4,0.5-0.8,0.7-1.1c0.2-0.5,0.4-0.8,0.5-1.2L-27.9-66.6L-27.9-66.6z"/>
					<path fill="#FFFFFF" d="M-0.9-60.3v-11.8h-4.8v11.2l-8.7,14.1H-9L-0.9-60.3z M2.2-46.8h5.4L0.2-59c-0.2,0.3-0.5,0.7-0.8,1.1
						c-0.2,0.5-0.5,1-0.7,1.5c-0.2,0.5-0.2,1.1-0.3,1.8c0,0.6,0.2,1.2,0.5,1.8L2.2-46.8z"/>
					<path fill="#FFFFFF" d="M24.4-54c0-1.1-0.3-2.3-0.9-3.5s-1.4-2.5-2.3-3.7c-0.9-1.2-1.9-2.4-2.9-3.5s-1.9-2.2-2.7-3.1L15-68.5
						l0.8,0.1h9.1v-3.8h-16v2.1c0.3,0.8,0.8,1.6,1.5,2.5c0.6,0.8,1.4,1.8,2.1,2.7c0.8,0.9,1.6,1.8,2.4,2.8c0.8,0.9,1.5,1.9,2.2,2.8
						s1.2,1.8,1.7,2.7c0.5,0.8,0.6,1.6,0.6,2.4c0,1.1-0.4,2-1.1,2.5c-0.8,0.6-1.7,0.9-2.8,0.9c-0.5,0-1.1-0.1-1.9-0.2
						s-1.5-0.5-2.5-0.8l-1.2,3.2c1.2,0.5,2.2,0.9,3.2,1.1s1.9,0.3,2.7,0.3c1.4,0,2.5-0.2,3.6-0.5c1.1-0.3,2-0.8,2.8-1.3
						c0.8-0.6,1.4-1.3,1.8-2.1C24.1-52,24.4-52.9,24.4-54z"/>
					<path fill="#FFFFFF" d="M40.1-72.6c-2.1,0-4.1,0.3-5.8,1c-1.7,0.7-3.1,1.6-4.2,2.8c-1.1,1.2-2,2.6-2.6,4.1
						c-0.6,1.6-0.9,3.3-0.9,5.1s0.3,3.5,0.9,5.1c0.6,1.6,1.5,3,2.7,4.1c1.2,1.1,2.6,2.1,4.2,2.8c1.7,0.7,3.5,1,5.7,1
						c1,0,2-0.1,3-0.3c1-0.2,2.1-0.5,3.1-0.9L45-50.9c-1,0.3-1.9,0.5-2.6,0.6c-0.7,0.2-1.5,0.2-2.3,0.2c-1.4,0-2.6-0.3-3.6-0.8
						c-1-0.5-1.8-1.2-2.5-2.1c-0.7-0.9-1.1-1.9-1.5-3.1c-0.3-1.1-0.5-2.3-0.5-3.5s0.2-2.4,0.5-3.5c0.3-1.1,0.8-2.1,1.5-3.1
						s1.5-1.6,2.5-2.1c1-0.5,2.2-0.8,3.6-0.8c1.5,0,3.1,0.4,4.8,1.1l1.3-3.1c-1.1-0.5-2.1-0.9-3.1-1.2
						C42.1-72.4,41.1-72.6,40.1-72.6z"/>
					<path fill="#FFFFFF" d="M58.2-72.6c-1.5,0-3,0.2-4.2,0.7c-1.2,0.5-2.3,1.1-3.2,1.9c-0.8,0.8-1.5,1.9-2,3.2s-0.7,2.8-0.7,4.4
						v15.6H53v-16.2c0-0.9,0.2-1.8,0.4-2.5s0.6-1.4,1.1-1.9s1-0.9,1.7-1.2c0.6-0.3,1.3-0.4,2.1-0.4s1.5,0.2,2.1,0.4
						c0.6,0.3,1.2,0.7,1.7,1.2c0.5,0.5,0.8,1.1,1.1,1.9c0.2,0.8,0.4,1.6,0.4,2.5v16.2h4.9v-15.6c0-1.5-0.2-2.9-0.7-4.2
						c-0.5-1.2-1.1-2.3-2-3.2c-0.8-0.9-1.9-1.6-3.2-2.1C61.2-72.4,59.7-72.6,58.2-72.6z"/>
				</g>
			</g>
			<path fill="#FFFFFF" d="M-0.5-29.7c27.2,0,58.9,12.2,62.1,43.4c0.7,7-4.2,35.4-25,58.9l-18.5-24h-37.3l-18.5,24
				c-20.8-23.5-25.7-52-25-58.9C-59.4-17.5-27.6-29.7-0.5-29.7"/>
			<g>
				<path d="M1.8-9.2l4.8,7C7.6-1,7.1,0.9,5.7,1.6c-1.8,1-3.9,1.5-6.1,1.5s-4.3-0.5-6.1-1.5C-8,0.9-8.4-1-7.5-2.3l4.8-7
					C-1.6-10.9,0.7-10.9,1.8-9.2z"/>
				<g>
					<path d="M11-18.1c-5,0-9.4,2.9-11.5,7.2C-2.6-15.2-7-18.1-12-18.1c-3.1,0-6,1.1-8.4,3.1c-0.5,0.4-0.5,1.1-0.2,1.5
						c0.4,0.5,1.1,0.5,1.5,0.2c1.9-1.7,4.4-2.5,6.9-2.5c5.1,0,9.5,3.7,10.4,8.7c0.1,0.5,0.5,0.9,1.1,0.9c0.5,0,1-0.4,1.1-0.9
						c0.9-5.1,5.3-8.7,10.4-8.7c2.6,0,5.1,0.8,6.9,2.5c0.5,0.4,1.1,0.3,1.5-0.2c0.4-0.5,0.3-1.1-0.2-1.5
						C17.1-17.1,14.2-18.1,11-18.1z"/>
				</g>
				<path d="M60.6,24.8c-1.5-0.4-3-0.8-4.7-1.2c-15-3.5-35.1-5.4-56.4-5.4s-41.3,1.9-56.4,5.4c-1.7,0.4-3.2,0.8-4.7,1.2
					c-0.2-1.2-0.5-2.2-0.6-3.3c3.1-0.8,6.4-1.5,9.8-2.2c0.7-9.1,9.5-16.3,20.4-16.5c9.4-0.2,17.4,5.1,19.9,12.3
					C-8.2,15-4.4,15-0.6,15c3.1,0,6.3,0.1,9.4,0.2C11.4,7.9,19.4,2.7,28.7,2.9C39.5,3,48.2,10.1,49.1,19c4.3,0.8,8.3,1.6,11.9,2.6
					C61,22.6,60.8,23.7,60.6,24.8z"/>
			</g>
		</g>
	</g>
</symbol>
<use xlink:href="#New_Symbol_2"  width="239" height="276.1" x="-119.5" y="-138" transform="matrix(0.1811 0 0 -0.1811 21.6408 25)" overflow="visible"/>
</svg>
